<?xml version="1.0" encoding="utf-8" ?>
<svg xmlns="http://www.w3.org/2000/svg" xmlns:xlink="http://www.w3.org/1999/xlink" width="1024" height="1024">
	<path fill="#9B9799" d="M87.0897 640.559C88.685 640.42 90.3864 640.463 91.9356 640.9C95.2638 641.837 98.1269 643.884 99.6541 647.034Q99.9059 647.554 100.105 648.096Q100.305 648.638 100.45 649.196Q100.595 649.755 100.684 650.326Q100.774 650.896 100.807 651.473Q100.839 652.049 100.815 652.626Q100.791 653.203 100.71 653.775Q100.63 654.347 100.493 654.908Q100.356 655.469 100.165 656.014C98.5203 660.663 95.2705 662.658 91.0234 664.532C89.3129 664.463 87.4451 664.11 85.8364 663.525Q85.2414 663.31 84.6712 663.035Q84.101 662.761 83.5615 662.43Q83.022 662.099 82.5187 661.716Q82.0154 661.332 81.5535 660.899Q81.0916 660.467 80.6759 659.99Q80.2601 659.513 79.8947 658.996Q79.5293 658.479 79.2181 657.929Q78.9068 657.378 78.6529 656.798C77.43 653.977 77.2365 650.766 78.4261 647.901C80.1191 643.823 83.2276 642.142 87.0897 640.559Z"/>
	<path fill="#9B9B9B" d="M701.628 106.563C703.575 106.446 705.593 106.3 707.502 106.776C710.109 107.425 712.56 108.845 713.946 111.212C715.515 113.893 715.595 117.32 714.785 120.253C713.292 125.66 709.743 128.566 705.153 131.276C702.762 131.833 701.039 132.037 698.65 131.399C696.022 130.696 694.008 129.337 692.755 126.871C691.179 123.771 691.114 120.022 692.204 116.758C693.832 111.885 697.225 108.883 701.628 106.563Z"/>
	<path fill="#9B9B9B" d="M915.586 653.062C917.961 652.895 920.208 652.857 922.491 653.641Q923.092 653.843 923.669 654.106Q924.246 654.369 924.793 654.691Q925.339 655.013 925.849 655.391Q926.359 655.768 926.827 656.196Q927.295 656.625 927.715 657.1Q928.135 657.575 928.504 658.091Q928.873 658.607 929.186 659.159Q929.498 659.711 929.752 660.292Q930.008 660.871 930.204 661.473Q930.399 662.075 930.531 662.694Q930.663 663.313 930.731 663.942Q930.798 664.571 930.8 665.204Q930.802 665.837 930.739 666.467Q930.676 667.097 930.548 667.716Q930.42 668.336 930.228 668.939Q930.037 669.543 929.784 670.123C928.105 673.98 925.088 676.048 921.332 677.62C919.071 677.838 916.993 677.97 914.778 677.328Q914.163 677.155 913.57 676.92Q912.976 676.685 912.409 676.391Q911.842 676.096 911.309 675.745Q910.775 675.395 910.28 674.991Q909.786 674.587 909.335 674.135Q908.884 673.683 908.482 673.187Q908.079 672.691 907.73 672.156Q907.381 671.622 907.088 671.054C905.57 668.074 905.28 664.434 906.467 661.289C908.162 656.796 911.403 654.845 915.586 653.062Z"/>
	<path fill="#9B9B9B" d="M256.814 143.981C259.1 143.955 261.349 144.092 263.51 144.908C266.267 145.949 268.455 148.053 269.493 150.823C270.701 154.044 270.261 157.669 268.84 160.743C266.653 165.471 262.939 167.714 258.269 169.451C255.411 169.865 252.612 169.789 249.953 168.519C247.495 167.346 245.757 165.337 244.935 162.738C243.892 159.44 244.456 155.682 246.011 152.641C248.356 148.053 252.088 145.649 256.814 143.981Z"/>
	<path fill="#998E8F" d="M864.863 176.91C870.886 176.924 876.958 176.752 882.974 176.951C881.087 194.05 874.277 210.167 860.61 221.189Q859.486 222.097 858.318 222.949Q857.15 223.8 855.942 224.592Q854.733 225.385 853.487 226.117Q852.241 226.849 850.96 227.518Q849.679 228.187 848.367 228.792Q847.054 229.397 845.714 229.937Q844.373 230.476 843.007 230.949Q841.642 231.421 840.254 231.825Q838.867 232.229 837.461 232.565Q836.055 232.9 834.634 233.165Q833.214 233.43 831.782 233.624Q830.35 233.819 828.91 233.942Q827.47 234.066 826.026 234.118Q824.582 234.17 823.137 234.151Q821.692 234.131 820.249 234.04Q818.807 233.949 817.371 233.787C804.499 232.348 791.84 227.268 782.341 218.316C782.98 218.193 783.354 218.147 783.945 217.952C789.111 216.256 793.32 211.496 795.869 206.907C801.65 211.242 808.142 214.542 815.31 215.823Q816.296 215.998 817.29 216.124Q818.284 216.251 819.283 216.329Q820.281 216.406 821.283 216.435Q822.284 216.464 823.286 216.444Q824.287 216.423 825.286 216.354Q826.286 216.285 827.281 216.167Q828.275 216.048 829.263 215.882Q830.251 215.715 831.229 215.5Q832.208 215.286 833.175 215.023Q834.141 214.761 835.094 214.451Q836.047 214.142 836.983 213.786Q837.92 213.43 838.838 213.029Q839.756 212.628 840.653 212.183Q841.55 211.737 842.425 211.248Q843.299 210.759 844.148 210.228Q844.998 209.697 845.82 209.125C857.061 201.282 862.599 190.143 864.863 176.91Z"/>
	<path fill="#9B9090" d="M782.341 218.316C781.955 217.986 781.579 217.644 781.221 217.284C769.299 205.284 762.98 188.299 763.306 171.508C763.612 155.747 769.611 141.389 781.098 130.546Q782.193 129.501 783.338 128.512Q784.483 127.522 785.675 126.59Q786.867 125.658 788.103 124.786Q789.34 123.914 790.617 123.103Q791.895 122.292 793.211 121.546Q794.527 120.799 795.879 120.117Q797.23 119.436 798.613 118.822Q799.996 118.208 801.407 117.663Q802.819 117.117 804.255 116.642Q805.692 116.167 807.15 115.762Q808.609 115.358 810.085 115.026Q811.561 114.694 813.052 114.435Q814.543 114.176 816.045 113.99Q817.547 113.805 819.056 113.693Q820.565 113.582 822.078 113.544Q823.59 113.507 825.103 113.544C841.42 114.071 857.344 122.182 868.422 134.05C879.11 145.501 883.45 161.64 882.974 176.951C876.958 176.752 870.886 176.924 864.863 176.91C864.884 164.564 862.204 152.7 853.252 143.688C845.433 135.817 834.338 130.997 823.215 130.993C812.121 130.988 800.549 135.295 792.673 143.209C784.582 151.339 780.202 162.861 780.32 174.279C780.443 186.201 785.008 196.929 793.548 205.227C794.266 205.924 795.009 206.407 795.869 206.907C793.32 211.496 789.111 216.256 783.945 217.952C783.354 218.147 782.98 218.193 782.341 218.316Z"/>
	<path fill="#9B9B9B" d="M795.869 206.907C795.009 206.407 794.266 205.924 793.548 205.227C785.008 196.929 780.443 186.201 780.32 174.279C780.202 162.861 784.582 151.339 792.673 143.209C800.549 135.295 812.121 130.988 823.215 130.993C834.338 130.997 845.433 135.817 853.252 143.688C862.204 152.7 864.884 164.564 864.863 176.91C862.599 190.143 857.061 201.282 845.82 209.125Q844.998 209.697 844.148 210.228Q843.299 210.759 842.425 211.248Q841.55 211.737 840.653 212.183Q839.756 212.628 838.838 213.029Q837.92 213.43 836.983 213.786Q836.047 214.142 835.094 214.451Q834.141 214.761 833.175 215.023Q832.208 215.286 831.229 215.5Q830.251 215.715 829.263 215.882Q828.275 216.048 827.281 216.167Q826.286 216.285 825.286 216.354Q824.287 216.423 823.286 216.444Q822.284 216.464 821.283 216.435Q820.281 216.406 819.283 216.329Q818.284 216.251 817.29 216.124Q816.296 215.998 815.31 215.823C808.142 214.542 801.65 211.242 795.869 206.907Z"/>
	<path fill="#998E8F" d="M846.859 169.71C850.528 168.545 853.804 168.611 857.554 169.086C857.755 180.502 855.558 189.492 847.462 197.921C840.833 204.822 832.15 209.012 822.51 209.205Q821.392 209.218 820.276 209.157Q819.16 209.096 818.05 208.962Q816.94 208.827 815.842 208.619Q814.744 208.412 813.661 208.132Q812.579 207.853 811.517 207.502Q810.456 207.152 809.42 206.732Q808.384 206.312 807.378 205.825Q806.372 205.338 805.4 204.785C809.831 202.634 812.944 202.454 815.537 197.774Q817.254 198.242 819.02 198.456Q820.787 198.669 822.566 198.622C829.495 198.417 835.954 195.859 840.689 190.703C846.33 184.562 847.222 177.651 846.859 169.71Z"/>
	<path fill="#9B9090" d="M805.4 204.785C804.081 204.238 802.729 203.408 801.55 202.61C793.963 197.472 789.164 188.281 787.645 179.378Q787.503 178.532 787.402 177.68Q787.302 176.828 787.245 175.972Q787.188 175.116 787.173 174.258Q787.159 173.4 787.187 172.542Q787.216 171.685 787.287 170.83Q787.359 169.975 787.473 169.125Q787.587 168.274 787.743 167.431Q787.9 166.587 788.098 165.752Q788.297 164.918 788.537 164.094Q788.777 163.27 789.058 162.459Q789.339 161.649 789.66 160.853Q789.981 160.057 790.341 159.279Q790.702 158.5 791.101 157.741Q791.5 156.981 791.937 156.243Q792.373 155.504 792.846 154.788Q793.319 154.072 793.827 153.381C799.542 145.579 808.459 140 818.062 138.614Q818.908 138.494 819.758 138.415Q820.609 138.337 821.462 138.299Q822.315 138.262 823.17 138.266Q824.024 138.27 824.877 138.316Q825.73 138.361 826.579 138.448Q827.429 138.535 828.274 138.663Q829.118 138.79 829.955 138.959Q830.793 139.128 831.621 139.337Q832.449 139.546 833.266 139.795Q834.083 140.044 834.887 140.332Q835.691 140.621 836.48 140.948Q837.269 141.275 838.042 141.64Q838.814 142.004 839.568 142.406Q840.321 142.808 841.055 143.246Q841.788 143.684 842.499 144.157Q843.211 144.63 843.898 145.137C851.76 151.042 856.257 159.42 857.554 169.086C853.804 168.611 850.528 168.545 846.859 169.71C844.412 161.933 841.523 155.526 833.981 151.409Q833.464 151.124 832.932 150.866Q832.401 150.607 831.857 150.376Q831.314 150.145 830.759 149.942Q830.204 149.739 829.64 149.565Q829.076 149.39 828.503 149.245Q827.931 149.099 827.352 148.983Q826.772 148.867 826.188 148.78Q825.604 148.694 825.016 148.637Q824.428 148.58 823.838 148.553Q823.248 148.527 822.657 148.53Q822.066 148.533 821.477 148.567Q820.887 148.6 820.3 148.663Q819.712 148.727 819.129 148.82Q818.546 148.913 817.968 149.036Q817.39 149.158 816.819 149.31Q816.248 149.462 815.686 149.643C809.197 151.694 803.461 156.557 800.437 162.663Q800.158 163.239 799.909 163.829Q799.659 164.418 799.439 165.02Q799.219 165.621 799.029 166.232Q798.839 166.844 798.68 167.464Q798.521 168.084 798.393 168.711Q798.265 169.338 798.168 169.971Q798.071 170.604 798.006 171.241Q797.941 171.878 797.907 172.517Q797.874 173.156 797.872 173.797Q797.871 174.437 797.901 175.076Q797.931 175.716 797.993 176.353Q798.055 176.99 798.149 177.623Q798.243 178.257 798.368 178.885Q798.493 179.512 798.649 180.133Q798.805 180.754 798.992 181.366Q799.179 181.979 799.396 182.581C801.564 188.605 806.113 193.811 811.995 196.456C813.116 196.96 814.342 197.477 815.537 197.774C812.944 202.454 809.831 202.634 805.4 204.785Z"/>
	<path fill="#9B9B9B" d="M815.537 197.774C814.342 197.477 813.116 196.96 811.995 196.456C806.113 193.811 801.564 188.605 799.396 182.581Q799.179 181.979 798.992 181.366Q798.805 180.754 798.649 180.133Q798.493 179.512 798.368 178.885Q798.243 178.257 798.149 177.623Q798.055 176.99 797.993 176.353Q797.931 175.716 797.901 175.076Q797.871 174.437 797.872 173.797Q797.874 173.156 797.907 172.517Q797.941 171.878 798.006 171.241Q798.071 170.604 798.168 169.971Q798.265 169.338 798.393 168.711Q798.521 168.084 798.68 167.464Q798.839 166.844 799.029 166.232Q799.219 165.621 799.439 165.02Q799.659 164.418 799.909 163.829Q800.158 163.239 800.437 162.663C803.461 156.557 809.197 151.694 815.686 149.643Q816.248 149.462 816.819 149.31Q817.39 149.158 817.968 149.036Q818.546 148.913 819.129 148.82Q819.712 148.727 820.3 148.663Q820.887 148.6 821.477 148.567Q822.066 148.533 822.657 148.53Q823.248 148.527 823.838 148.553Q824.428 148.58 825.016 148.637Q825.604 148.694 826.188 148.78Q826.772 148.867 827.352 148.983Q827.931 149.099 828.503 149.245Q829.076 149.39 829.64 149.565Q830.204 149.739 830.759 149.942Q831.314 150.145 831.858 150.376Q832.401 150.607 832.932 150.866Q833.464 151.124 833.981 151.409C841.523 155.526 844.412 161.933 846.859 169.71C847.222 177.651 846.33 184.562 840.689 190.703C835.954 195.859 829.495 198.417 822.566 198.622Q820.787 198.669 819.02 198.456Q817.254 198.242 815.537 197.774Z"/>
	<path fill="#998E8F" d="M821.768 156.176C824.587 156.29 827.383 156.741 829.976 157.89C834.117 159.724 837.439 162.966 839.048 167.234Q839.205 167.649 839.34 168.071Q839.475 168.493 839.589 168.922Q839.703 169.35 839.795 169.784Q839.887 170.218 839.957 170.655Q840.026 171.093 840.074 171.534Q840.122 171.975 840.147 172.417Q840.172 172.86 840.175 173.303Q840.177 173.747 840.158 174.19Q840.138 174.633 840.096 175.074Q840.054 175.515 839.989 175.954Q839.925 176.393 839.838 176.827Q839.751 177.262 839.643 177.692Q839.534 178.122 839.404 178.546Q839.274 178.97 839.122 179.386Q838.971 179.803 838.798 180.211Q838.626 180.62 838.433 181.019C835.412 187.184 830.139 189.523 824.027 191.631C819.76 191.285 816.097 190.78 812.473 188.24Q811.788 187.757 811.154 187.209Q810.52 186.66 809.943 186.053Q809.366 185.445 808.852 184.784Q808.337 184.122 807.89 183.413Q807.443 182.705 807.067 181.955Q806.692 181.206 806.391 180.424Q806.091 179.641 805.869 178.833Q805.647 178.025 805.506 177.199C804.679 172.502 805.782 167.44 808.598 163.581C811.796 159.196 816.511 156.971 821.768 156.176Z"/>
	<path fill="#9B9B9B" d="M820.926 166.541Q821.869 166.48 822.814 166.48C824.679 166.499 826.425 167.238 827.675 168.642C828.946 170.069 829.402 171.852 829.236 173.735C828.94 177.089 827.25 178.994 824.777 181.067C824.177 181.039 823.578 181.008 822.982 180.934C820.754 180.661 818.579 179.408 817.285 177.555C816.186 175.981 815.864 174.023 816.262 172.158C816.849 169.408 818.699 168.013 820.926 166.541Z"/>
	<path d="M158.079 173.66Q159.092 173.546 160.109 173.474Q161.126 173.401 162.144 173.371Q163.163 173.341 164.183 173.352Q165.202 173.364 166.22 173.417Q167.238 173.471 168.253 173.566Q169.268 173.661 170.278 173.798Q171.288 173.935 172.292 174.113Q173.295 174.291 174.291 174.51Q175.286 174.73 176.272 174.99Q177.258 175.25 178.232 175.55Q179.206 175.851 180.167 176.191Q181.128 176.531 182.074 176.91Q183.02 177.29 183.95 177.708Q184.88 178.125 185.791 178.581Q186.703 179.037 187.595 179.53Q188.488 180.023 189.359 180.552Q190.457 181.213 191.521 181.927Q192.585 182.64 193.614 183.405Q194.642 184.169 195.632 184.983Q196.622 185.797 197.571 186.658Q198.52 187.518 199.426 188.424Q200.332 189.331 201.193 190.28Q202.054 191.229 202.867 192.219Q203.681 193.209 204.446 194.237Q205.21 195.265 205.924 196.33Q206.637 197.394 207.298 198.492Q207.959 199.589 208.566 200.718Q209.173 201.847 209.724 203.004Q210.275 204.16 210.769 205.343Q211.263 206.525 211.699 207.73Q212.135 208.935 212.511 210.16Q212.888 211.384 213.205 212.626C217.004 228.09 213.215 244.085 202.692 256.002C199.126 260.04 194.593 263.275 191.467 267.682C187.154 273.762 182.666 285.316 178.155 292.723C176.13 291.652 174.243 290.235 172.346 288.951C166.142 284.36 160.517 278.029 153.871 274.247C147.213 270.458 139.708 269.364 133.227 264.813C122.67 257.398 115.334 244.751 113.262 232.11Q113.069 230.878 112.936 229.639Q112.804 228.399 112.733 227.154Q112.662 225.91 112.652 224.663Q112.643 223.416 112.695 222.171Q112.747 220.925 112.86 219.684Q112.974 218.442 113.148 217.208Q113.323 215.973 113.558 214.749Q113.793 213.525 114.089 212.313Q114.384 211.102 114.739 209.907Q115.094 208.712 115.508 207.536Q115.921 206.36 116.392 205.205Q116.863 204.051 117.39 202.921Q117.918 201.792 118.5 200.69Q119.083 199.587 119.719 198.515Q120.355 197.443 121.044 196.404Q121.732 195.364 122.471 194.36C131.233 182.379 143.614 175.912 158.079 173.66Z"/>
	<path fill="#9B9B9B" d="M173.531 204.431C176.838 204.473 179.385 205.173 181.787 207.575C183.327 209.113 185.174 211.611 184.9 213.931C184.127 220.493 163.047 238.557 157.392 243.053C155.071 241.633 152.906 240 150.712 238.395C146.41 234.786 142.481 231.58 139.431 226.772C139.882 224.478 140.253 222.222 141.831 220.4C142.91 219.155 144.341 218.386 146.018 218.386C149.838 218.387 152.498 221.42 154.932 223.946C160.326 216.95 167.294 210.703 173.531 204.431Z"/>
	<path fill="#9B9799" d="M873.064 403.575C867.808 396.599 856.998 379.496 850.366 375.308C848.312 374.011 845.856 373.164 843.628 372.204C837.359 369.504 832.441 366.637 827.551 361.841C817.457 351.943 812.137 337.338 812.088 323.32C812.033 307.446 819.074 291.353 830.284 280.203Q831.363 279.132 832.493 278.115Q833.624 277.099 834.803 276.139Q835.983 275.18 837.208 274.28Q838.434 273.38 839.702 272.542Q840.971 271.704 842.279 270.929Q843.587 270.155 844.932 269.446Q846.277 268.737 847.656 268.096Q849.035 267.455 850.443 266.883Q851.852 266.31 853.287 265.808Q854.722 265.307 856.18 264.876Q857.638 264.446 859.116 264.088Q860.594 263.731 862.087 263.447Q863.581 263.163 865.087 262.953Q866.593 262.743 868.107 262.608Q869.621 262.473 871.14 262.413Q872.66 262.353 874.18 262.368C891.939 263.775 908.409 269.747 920.343 283.583C930.552 295.418 936.348 311.773 935.008 327.418C933.77 341.857 927.001 355.804 915.746 365.069C908.854 370.743 901.498 373.45 893.148 376.281C888.441 381.804 878.395 401.305 873.56 403.837L873.064 403.575Z"/>
	<path fill="#9B9B9B" d="M874.688 294.956C879.788 300.525 882.154 307.269 886.375 313.366C890.498 313.809 899.191 314.954 902.074 318.155C902.901 319.074 903.357 320.02 903.142 321.28C902.408 325.58 894.609 332.005 891.229 334.534C892.231 339.78 894.991 348.771 892.778 353.703C891.761 354.498 891.273 354.818 889.94 354.687C884.382 354.141 879.262 349.602 874.004 347.94C870.458 349.752 861.068 355.816 857.283 355.033C856.45 354.86 855.814 354.657 855.308 353.959C852.658 350.295 855.029 339.094 855.489 334.651C851.951 330.866 846.219 326.472 844.254 321.657C843.893 320.772 843.762 319.701 844.281 318.861C846.546 315.193 857.951 314.082 862.173 312.766L862.761 312.577C867.328 306.879 869.357 300.365 874.688 294.956Z"/>
	<path fill="#9B9B9B" d="M113.418 444.942L112.769 334.059C112.766 329.486 112.734 320.658 116.313 317.322C118.178 315.585 120.283 314.863 122.776 314.606C128.88 313.975 135.268 314.358 141.4 314.39L171.48 314.472L277.331 314.477C276.535 322.267 277.076 330.491 277.102 338.333L210.595 338.291C200.895 338.275 190.639 337.396 181.008 338.138C179.609 338.246 178.673 338.559 177.609 339.509C177.234 340.925 177.387 341.187 177.833 342.606C179.268 343.849 180.75 344.129 182.602 344.273C189.956 344.847 197.8 343.843 205.247 343.899L277.106 344.006C277.093 350.199 276.948 356.43 277.145 362.618C278.503 365.234 277.745 374.496 277.431 377.596C277.285 383.485 277.922 390.06 277.207 395.845C269.296 402.829 261.038 409.412 253.032 416.289C243.647 424.35 234.509 432.748 225.311 441.024C218.33 447.304 210.787 453.715 204.359 460.543C199.593 454.708 193.329 450.338 188.12 444.926L113.418 444.942Z"/>
	<path d="M151.876 378.417C152.669 379.413 153.176 379.898 153.244 381.222C151.792 385.849 145.986 390.14 142.53 393.471L137.616 388.882C136.39 387.72 135.285 386.797 135.027 385.055L135.731 384.472C138.982 384.969 140.126 386.212 142.336 388.558Q147.462 383.822 151.876 378.417Z"/>
	<path d="M152.427 410.87C153.438 411.741 153.366 411.879 153.629 413.209C152.222 418.184 146.813 421.899 142.95 424.959L137.155 419.205C135.452 417.801 135.019 417.236 134.758 415.067L135.322 414.416C138.592 415.182 140.686 417.66 142.944 419.969C146.283 417.183 149.322 413.919 152.427 410.87Z"/>
	<path fill="#332E2E" d="M277.145 362.618C278.503 365.234 277.745 374.496 277.431 377.596C270.769 377.146 263.881 378.696 257.273 377.478C255.416 377.135 254.369 376.622 253.308 375.053C253.117 373.631 253.007 372.997 253.646 371.65C257.194 368.799 272.503 370.043 277.164 370.131Q277.12 366.375 277.145 362.618Z"/>
	<path fill="#332E2E" d="M177.73 391.051C185.625 391.033 217.519 389.504 222.258 391.592C223.473 392.127 223.793 392.886 224.297 394.033C224.063 395.738 223.368 396.59 222.351 397.899C215.59 398.328 180.835 399.398 177.018 397.08C175.925 396.417 175.904 395.904 175.589 394.763C175.922 393.188 176.751 392.267 177.73 391.051Z"/>
	<path fill="#332E2E" d="M198.021 412.263C202.232 411.962 218.579 411.39 221.763 413.81C222.899 414.672 222.916 414.984 223.113 416.3C222.775 417.269 222.543 417.826 221.769 418.543C218.246 421.804 206.603 420.133 201.783 419.975C196.127 420.187 181.96 421.326 177.223 419.393C176.35 418.342 175.876 417.826 175.95 416.345C175.995 415.453 176.281 414.735 176.881 414.105C179.999 410.828 193.324 412.234 198.021 412.263Z"/>
	<path fill="#332E2E" d="M180.924 370.097C200.157 369.926 219.619 369.002 238.825 370.101C241.57 370.258 244.693 370.086 246.619 372.246C246.847 373.615 246.636 374.704 245.831 375.849C245.04 376.975 244.424 377.228 243.125 377.492C231.813 377.427 220.386 377.309 209.082 377.471C201.136 377.586 186.42 378.921 179.191 377.119C177.36 376.662 176.392 376.077 175.438 374.446C175.461 373.245 175.464 372.264 176.437 371.405C177.734 370.261 179.286 370.2 180.924 370.097Z"/>
	<path fill="#332E2E" d="M143.611 324.198C146.75 324.249 149.602 324.735 152.437 326.157C156.604 328.247 159.579 332.082 160.817 336.55Q160.936 336.979 161.033 337.413Q161.13 337.848 161.205 338.286Q161.28 338.725 161.332 339.167Q161.384 339.609 161.414 340.053Q161.444 340.497 161.452 340.942Q161.459 341.387 161.444 341.832Q161.428 342.276 161.39 342.72Q161.352 343.163 161.292 343.604Q161.232 344.045 161.149 344.482Q161.066 344.92 160.962 345.352Q160.857 345.785 160.73 346.211Q160.604 346.638 160.456 347.058Q160.307 347.477 160.138 347.889Q159.969 348.3 159.779 348.703Q159.589 349.105 159.379 349.498Q159.169 349.89 158.939 350.271C156.023 355.169 151.566 357.704 146.202 359.092C141.719 359.015 137.87 358.15 134.296 355.297Q133.948 355.017 133.615 354.72Q133.281 354.424 132.963 354.11Q132.645 353.797 132.344 353.468Q132.042 353.138 131.758 352.794Q131.473 352.45 131.207 352.092Q130.94 351.734 130.692 351.363Q130.444 350.992 130.215 350.609Q129.986 350.226 129.776 349.831Q129.567 349.437 129.378 349.033Q129.189 348.628 129.021 348.215Q128.853 347.801 128.706 347.38Q128.559 346.958 128.433 346.53Q128.308 346.101 128.204 345.667Q128.101 345.233 128.02 344.794Q127.938 344.355 127.879 343.912Q127.82 343.47 127.784 343.025C127.353 338.254 128.574 333.113 131.779 329.457C134.9 325.897 139.021 324.513 143.611 324.198Z"/>
	<path fill="#9B9090" d="M204.359 460.543C210.787 453.715 218.33 447.304 225.311 441.024C234.509 432.748 243.647 424.35 253.032 416.289C261.038 409.412 269.296 402.829 277.207 395.845C277.837 415.182 277.294 434.666 277.272 454.022L277.194 544.113C277.812 557.072 277.039 570.229 277.117 583.213L197.974 583.196C190.757 583.192 165.155 582.267 160.648 583.712C153.648 584.106 146.462 584.036 139.452 583.829C132.21 583.616 123.944 583.31 118.744 577.491C111.416 569.29 112.926 555.224 113.355 545.077C113.946 511.733 113.423 478.296 113.418 444.942L188.12 444.926C193.329 450.338 199.593 454.708 204.359 460.543Z"/>
	<path fill="#998E8F" d="M277.194 544.113C277.812 557.072 277.039 570.229 277.117 583.213L197.974 583.196C190.757 583.192 165.155 582.267 160.648 583.712C153.648 584.106 146.462 584.036 139.452 583.829C132.21 583.616 123.944 583.31 118.744 577.491C111.416 569.29 112.926 555.224 113.355 545.077L228.14 545.032Q242.23 545.028 256.319 545.248C263 545.37 269.974 545.903 276.623 545.175L277.194 544.113Z"/>
	<path fill="#295CD6" d="M761.533 598.556C769.36 598.475 777.16 598.494 784.97 599.044C809.004 598.975 833.092 599.388 857.117 598.979L865.938 599.08C867.34 618.583 866.113 638.567 866.098 658.137L866.133 701.263C866.222 709.717 866.705 718.148 866.5 726.604C866.333 742.562 866.578 758.533 866.499 774.496C868.63 773.803 870.314 772.536 871.948 771.017C879.717 746.373 887.082 731.438 908.034 715.47C903.312 741.33 898.045 749.998 880.522 769.491C887.548 766.982 894.431 764.03 900.682 759.908C905.942 756.439 910.515 751.98 915.549 748.196C930.413 737.022 946.556 734.895 964.644 736.925C947.704 748.854 925.32 762.435 904.981 767.083C896.771 768.96 888.495 769.279 880.217 770.333L880.13 770.876L880.294 770.543L880.768 771.177C886.135 771.686 891.546 771.672 896.904 772.255C912.968 774 925.415 780.332 938.879 788.703C926.356 791.61 913.483 792.441 900.859 789.63C895.536 788.445 890.324 786.532 885.382 784.242C881.239 782.321 872.059 774.787 867.74 776.046C866.707 776.348 867 776.246 866.127 776.823Q865.886 787.9 866.025 798.978Q883.26 804.46 899.76 811.866C892.767 812.273 885.531 813.075 878.556 812.176C875.813 811.822 868.72 810.038 866.412 810.976C866.102 818.631 866.201 826.298 866.18 833.958C866.145 847.111 866.346 860.137 855.88 869.8Q854.715 870.88 853.488 871.89C851.641 872.96 849.855 874.084 847.704 874.363C838.84 875.516 829.359 875.211 820.43 875.228L781.337 875.26C772.525 875.29 749.26 876.695 741.915 874.857C755.396 867.533 764.76 850.839 775.287 839.722C790.386 823.776 810.26 807.534 829.275 796.693C830.661 795.718 832.116 795.046 832.432 793.319L831.44 792.08C828.568 794.602 824.798 796.57 821.581 798.652Q813.927 803.548 806.628 808.958C789.901 821.329 775.704 835.914 761.799 851.278C761.612 845.457 761.98 839.564 762 833.732L762.001 789.343L761.533 598.556Z"/>
	<path fill="#332E2E" d="M147.023 868.873C159.872 878.394 174.651 880.846 190.259 878.519Q193.718 878.039 197.096 877.151C200.174 881.921 203.85 886.197 207.675 890.379C210.743 889.579 214.273 890.682 217.443 890.635C227.991 890.476 228.759 880.932 234.681 874.917C234.793 874.803 234.91 874.695 235.024 874.584L235.539 877.103C246.301 876.806 257.062 876.434 267.829 876.573C276.806 876.688 286.098 877.366 295.048 876.868C296.947 876.762 298.859 876.674 300.561 875.759C310.765 878.311 335.424 877.049 347.332 877.051L421.048 877.19L625.519 877.261L697.029 877.479C707.294 877.515 717.644 877.989 727.897 877.698C732.826 877.558 737.269 876.445 741.915 874.857C749.26 876.695 772.525 875.29 781.337 875.26L820.43 875.228C829.359 875.211 838.84 875.516 847.704 874.363C849.855 874.084 851.641 872.96 853.488 871.89C856.502 873.01 860.208 872.742 863.393 872.764C873.774 872.832 891.655 870.995 900.338 876.578C905.305 879.77 907.976 885.394 909.069 891.036C910.19 896.821 908.744 902.769 905.381 907.575C901.66 912.891 896.279 915.975 889.925 917.045C882.47 918.3 874.318 917.523 866.754 917.518L825.036 917.514L667.693 917.472L348.947 917.365Q283.353 917.564 217.758 917.083C194.741 917.031 171.616 917.623 148.614 916.979C141.392 916.777 134.535 916.304 128.496 911.879Q128.009 911.525 127.542 911.147Q127.074 910.769 126.625 910.368Q126.177 909.967 125.75 909.544Q125.322 909.12 124.917 908.676Q124.511 908.232 124.129 907.767Q123.747 907.303 123.388 906.82Q123.03 906.337 122.696 905.836Q122.363 905.336 122.055 904.819Q121.747 904.302 121.466 903.77Q121.185 903.238 120.931 902.693Q120.677 902.148 120.451 901.59Q120.224 901.033 120.027 900.465Q119.829 899.897 119.661 899.319Q119.492 898.742 119.353 898.157Q119.214 897.571 119.105 896.98Q118.995 896.388 118.916 895.792C117.983 888.939 120.268 881.403 124.658 876.049C129.904 869.651 139.433 869.496 147.023 868.873Z"/>
	<path fill="#9C9194" d="M207.675 890.379C210.743 889.579 214.273 890.682 217.443 890.635C227.991 890.476 228.759 880.932 234.681 874.917C234.793 874.803 234.91 874.695 235.024 874.584L235.539 877.103C234.864 883.104 233.293 888.557 228.462 892.602C225.477 895.102 221.679 896.442 217.782 895.951C213.718 895.438 210.545 893.171 207.675 890.379Z"/>
	<path fill="#295CD6" d="M277.117 583.213L277.15 656.631C277.197 667.549 278.159 679.177 277.135 689.992Q276.59 742.649 276.992 795.306L276.946 827.79C276.937 836.039 276.389 844.709 277.971 852.836C278.936 857.787 282.131 862.637 285.622 866.22C289.685 870.392 295.044 873.876 300.561 875.759C298.859 876.674 296.947 876.762 295.048 876.868C286.098 877.366 276.806 876.688 267.829 876.573C257.062 876.434 246.301 876.806 235.539 877.103L235.024 874.584C234.91 874.695 234.793 874.803 234.681 874.917C228.759 880.932 227.991 890.476 217.443 890.635C214.273 890.682 210.743 889.579 207.675 890.379C203.85 886.197 200.174 881.921 197.096 877.151Q193.718 878.039 190.259 878.519C174.651 880.846 159.872 878.394 147.023 868.873C139.389 861.388 132.918 854.222 128.802 844.164C123.609 831.471 124.043 816.756 129.492 804.212C135.708 789.901 147.182 781.292 161.395 775.777C160.788 769.194 161.03 762.439 161.012 755.829L160.972 724.323L161.138 618.118C161.14 612.49 161.98 587.459 160.648 583.712C165.155 582.267 190.757 583.192 197.974 583.196L277.117 583.213Z"/>
	<path fill="#9B9090" d="M161.395 775.777C176.184 772.023 189.614 773.307 202.9 781.155C214.893 788.24 223.287 800.569 226.614 813.984C230.072 827.922 227.927 841.34 220.442 853.501C220.097 854.062 219.739 854.603 219.369 855.147C224.895 860.547 232.49 867.079 235.024 874.584C234.91 874.695 234.793 874.803 234.681 874.917C228.759 880.932 227.991 890.476 217.443 890.635C214.273 890.682 210.743 889.579 207.675 890.379C203.85 886.197 200.174 881.921 197.096 877.151Q193.718 878.039 190.259 878.519C174.651 880.846 159.872 878.394 147.023 868.873C139.389 861.388 132.918 854.222 128.802 844.164C123.609 831.471 124.043 816.756 129.492 804.212C135.708 789.901 147.182 781.292 161.395 775.777Z"/>
	<path fill="#9B9B9B" d="M190.588 801.01C192.691 800.891 194.24 801.173 196.152 802.104C198.542 803.267 200.816 805.11 201.56 807.771C202.075 809.611 201.71 811.424 200.763 813.056C197.29 819.047 179.525 840.549 174.251 845.525C172.646 847.041 170.858 848.63 168.679 849.184C163.84 848.415 159.849 842.61 156.855 839.104C152.569 835.156 144.909 829.175 144.333 823.071C144.123 820.846 145.079 818.839 146.577 817.246C148.211 815.509 150.314 814.087 152.775 814.05C158.313 813.968 163.945 820.831 167.667 824.435C175.513 816.689 181.275 807.202 190.588 801.01Z"/>
	<path d="M571.83 173.98C571.753 170.309 571.074 164.956 573.689 161.953C574.371 161.169 574.882 160.893 575.821 160.512C577.372 160.615 578.361 160.797 579.386 162.064C582.102 165.421 581.573 170.302 581.501 174.34L633.357 174.53C633.1 170.585 632.19 164.995 635.135 161.753C635.835 160.982 636.331 160.7 637.276 160.326C638.801 160.451 639.767 160.723 640.779 161.95C643.625 165.4 643.125 170.382 643.081 174.555C652.404 174.326 665.803 172.676 673.262 179.627C678.545 184.55 679.338 193.398 679.386 200.234C679.425 205.662 679.068 211.094 679.044 216.522L706.876 216.538C722.647 216.502 738.944 214.955 750.971 227.228C755.585 231.937 759.372 238.594 760.698 245.079C762.177 252.316 761.51 260.481 761.491 267.835L761.442 298.541C761.362 339.826 761.054 381.053 761.481 422.339Q812.451 422.781 863.422 422.546L890.555 422.51C896.97 422.477 903.619 422.014 909.98 422.92C914.663 423.586 918.04 424.806 921.415 428.293C924.303 431.279 926.395 435.157 927.037 439.28C927.979 445.332 927.613 451.842 927.597 457.956L927.544 485.974L927.475 542.804C927.513 553.557 928.124 564.36 927.722 575.102C927.468 581.903 927.428 589.336 922.175 594.399C915.518 600.815 904.218 599.356 895.664 599.056C895.603 599.054 895.543 599.046 895.483 599.041Q880.71 598.886 865.938 599.08L857.117 598.979C833.092 599.388 809.004 598.975 784.97 599.044C777.16 598.494 769.36 598.475 761.533 598.556L762.001 789.343L762 833.732C761.98 839.564 761.612 845.457 761.799 851.278C775.704 835.914 789.901 821.329 806.628 808.958Q813.927 803.548 821.581 798.652C824.798 796.57 828.568 794.602 831.44 792.08L832.432 793.319C832.116 795.046 830.661 795.718 829.275 796.693C810.26 807.534 790.386 823.776 775.287 839.722C764.76 850.839 755.396 867.533 741.915 874.857C737.269 876.445 732.826 877.558 727.897 877.698C717.644 877.989 707.294 877.515 697.029 877.479L625.519 877.261L421.048 877.19L347.332 877.051C335.424 877.049 310.765 878.311 300.561 875.759C295.044 873.876 289.685 870.392 285.622 866.22C282.131 862.637 278.936 857.787 277.971 852.836C276.389 844.709 276.937 836.039 276.946 827.79L276.992 795.306Q276.591 742.648 277.135 689.992C278.159 679.177 277.197 667.549 277.15 656.631L277.117 583.213C277.039 570.229 277.812 557.072 277.194 544.113L277.272 454.022C277.294 434.666 277.837 415.182 277.207 395.845C277.922 390.06 277.285 383.485 277.431 377.596C277.745 374.496 278.503 365.234 277.145 362.618C276.948 356.43 277.093 350.199 277.106 344.006L205.247 343.899C197.8 343.843 189.956 344.847 182.602 344.273C180.75 344.129 179.268 343.849 177.833 342.606C177.387 341.187 177.234 340.925 177.609 339.509C178.673 338.559 179.609 338.246 181.008 338.138C190.639 337.396 200.895 338.275 210.595 338.291L277.102 338.333C277.076 330.491 276.535 322.267 277.331 314.477L277.378 313.999C277.937 307.733 277.529 301.186 277.478 294.892L277.181 262.741C277.072 254.852 276.27 246.169 278.237 238.46Q278.486 237.469 278.811 236.501Q279.136 235.533 279.535 234.593Q279.934 233.653 280.405 232.746Q280.876 231.84 281.416 230.973Q281.956 230.106 282.562 229.284Q283.168 228.462 283.836 227.689Q284.504 226.916 285.23 226.198Q285.955 225.479 286.735 224.819C289.954 222.147 293.822 220.401 297.887 219.486C306.282 217.595 315.508 218.363 324.077 218.438Q336.819 218.536 349.56 218.453C349.418 207.43 347.162 187.781 355.557 179.505C362.763 172.402 376.233 174.118 385.44 174.394C385.397 170.507 384.96 165.101 387.954 162.072C388.723 161.294 389.334 161.032 390.343 160.682C391.92 160.908 392.912 161.182 393.853 162.56C396.187 165.979 395.639 170.429 395.531 174.359L446.502 174.419C446.418 170.41 445.913 165.44 449.11 162.38C449.711 161.805 450.396 161.586 451.166 161.319C452.733 161.496 453.727 161.733 454.702 163.068C457.079 166.322 456.557 170.46 456.417 174.258L508.569 174.107C508.589 170.118 508.161 165.388 511.13 162.242C511.87 161.458 512.594 161.212 513.604 160.91C515.06 161.036 515.815 161.213 516.876 162.278C519.794 165.206 519.507 170.289 519.413 174.061L571.83 173.98Z"/>
	<path fill="#9B9B9B" d="M830.711 528.721C834.305 529.906 840.106 531.064 842.049 534.601C842.518 535.456 842.797 536.39 843.034 537.33C841.504 537.703 840.086 537.96 838.504 537.82C835.669 537.571 833.096 536.807 831.31 534.479C829.942 532.697 830.456 530.793 830.711 528.721Z"/>
	<path fill="#9B9799" d="M830.456 525.744L832.916 526.216C837.872 526.97 842.991 527.824 847.922 526.401C848.055 528.952 848.241 531.404 848.7 533.925C846.846 535.15 845.03 536.34 843.034 537.33C842.797 536.39 842.518 535.456 842.049 534.601C840.106 531.064 834.305 529.906 830.711 528.721L830.456 525.744Z"/>
	<path fill="#9B9B9B" d="M551.114 397.194C561.473 396.619 635.337 395.841 640.233 397.637C640.952 397.901 640.992 398.694 641.252 399.36C632.964 399.918 557.405 400.355 553.222 399.108C551.824 398.692 551.762 398.395 551.114 397.194Z"/>
	<path fill="#9B9B9B" d="M556.265 356.16C568.529 355.522 684.84 355.059 688.558 356.68L688.801 357.509C687.495 358.544 687.114 358.277 685.496 358.193L599.517 358.17C586.901 358.183 574.186 358.97 561.584 358.533C559.378 358.457 553.603 358.528 552.08 356.922C553.284 356.087 554.85 356.229 556.265 356.16Z"/>
	<path fill="#9B9B9B" d="M579.409 376.265C597.23 375.254 615.293 376.287 633.143 376.288L663.122 376.454C671.203 376.47 679.466 376.094 687.482 377.207L688.119 377.718L689.235 377.489L688.85 377.414L688.917 377.669C682.709 379.715 666.762 378.691 659.375 378.692C635.403 378.456 611.348 379.03 587.358 379.012C576.804 379.004 565.475 379.627 554.997 378.44C553.981 378.325 552.551 378.368 551.905 377.541C556.021 375.224 573.639 376.267 579.409 376.265Z"/>
	<path fill="#998E8F" d="M858.128 536.349C874.101 544.028 885.851 556.855 891.669 573.669Q892.709 576.723 893.471 579.858Q894.234 582.993 894.713 586.184Q895.193 589.375 895.386 592.595Q895.579 595.816 895.483 599.041Q880.71 598.886 865.938 599.08L857.117 598.979C859.421 578.457 857.8 557.042 858.128 536.349Z"/>
	<path fill="#9B9B9B" d="M840.805 486.794C845.319 488.023 849.248 487.633 853.362 485.331C854.875 484.484 856.339 483.441 857.757 482.444C860.45 487.762 860.014 493.17 861.936 498.599C864.62 499.291 867.665 499.911 868.965 502.698C870.09 505.111 869.066 507.717 868.214 510.028C866.894 511.055 865.65 511.96 864.192 512.778C857.225 516.682 858.885 522.798 847.922 526.401C842.991 527.824 837.872 526.97 832.916 526.216L830.456 525.744C827.791 524.54 813.755 511.349 812.058 509.01C811.042 507.61 810.88 504.722 811.157 503.042C812.003 497.901 816.181 499.717 818.499 497.077C819.141 496.346 819.656 494.99 820.105 494.119C822.56 489.359 824.077 486.569 828.611 483.549C832.704 484.359 836.774 485.699 840.805 486.794Z"/>
	<path fill="#998E8F" d="M395.013 336.479C408.677 337.477 420.64 339.918 431.085 349.426Q432.032 350.286 432.937 351.191Q433.842 352.096 434.701 353.044Q435.561 353.992 436.373 354.981Q437.185 355.97 437.949 356.997Q438.712 358.024 439.424 359.087Q440.137 360.15 440.797 361.246Q441.457 362.343 442.062 363.47Q442.668 364.597 443.219 365.752Q443.769 366.907 444.262 368.088Q444.756 369.269 445.192 370.472Q445.627 371.675 446.004 372.898Q446.38 374.121 446.697 375.361Q447.013 376.601 447.269 377.855Q447.525 379.108 447.72 380.373Q447.914 381.638 448.047 382.911Q448.18 384.183 448.251 385.461L447.504 385.967C430.312 386.489 412.745 386.921 395.62 385.205C393.659 369.239 394.81 352.546 395.013 336.479Z"/>
	<path fill="#9B9090" d="M851.158 534.407C853.518 534.9 855.82 535.656 858.128 536.349C857.8 557.042 859.421 578.457 857.117 598.979C833.092 599.388 809.004 598.975 784.97 599.044C785.287 585.303 786.623 573.826 793.837 561.769C801.844 548.389 814.256 537.997 829.497 534.22C829.538 534.465 829.576 534.71 829.621 534.955C830.18 538.003 831.628 540.764 834.321 542.443C836.532 543.822 839.246 543.976 841.72 543.298C846.567 541.97 848.864 538.515 851.158 534.407Z"/>
	<path fill="#9B9B9B" d="M380.565 343.625C382.867 343.481 386.174 343.008 388.169 344.38C389.687 349.046 388.231 356.94 388.063 361.92C387.842 368.483 386.289 384.405 391.293 389.289C393.495 391.439 397.105 392.279 400.051 392.672C405.821 393.441 411.995 392.709 417.816 392.594Q430.935 392.463 444.055 392.512C443.538 403.489 441.28 413.171 435.423 422.59C427.136 435.918 414.616 444.354 399.468 447.891C385.857 450.574 371.007 448.353 359.281 440.765C347.076 432.867 338.24 420.582 335.325 406.279Q335.065 405.01 334.867 403.729Q334.668 402.449 334.533 401.16Q334.398 399.872 334.325 398.578Q334.253 397.285 334.244 395.989Q334.235 394.693 334.289 393.399Q334.343 392.104 334.461 390.814Q334.578 389.524 334.758 388.241Q334.938 386.958 335.181 385.685Q335.423 384.412 335.727 383.153Q336.032 381.893 336.397 380.65Q336.763 379.407 337.189 378.183Q337.614 376.96 338.099 375.758Q338.584 374.557 339.127 373.38Q339.67 372.204 340.27 371.056Q340.87 369.907 341.525 368.789Q342.18 367.672 342.889 366.587C351.697 353.32 365.33 346.68 380.565 343.625Z"/>
	<path fill="#332E2E" d="M678.994 228.5L708.901 228.469C716.081 228.455 723.639 227.777 730.688 229.355C735.071 230.337 739.259 232.239 742.508 235.395C751.512 244.142 750.584 258.826 750.508 270.376Q750.352 284.436 749.948 298.491L544.807 298.04C548.938 294.144 552.602 289.851 556.483 285.717L579.627 261.046C579.818 261.028 580.009 261.008 580.2 260.992C587.464 260.383 595.071 261.01 602.382 261.023C614.074 261.043 625.774 260.707 637.462 260.872C645.931 260.992 654.814 261.647 663.205 260.436C666.802 259.917 671.238 258.95 673.776 256.162C680.458 248.824 679.168 237.618 678.994 228.5Z"/>
	<path fill="#9B9B9B" d="M287.114 298.155C286.641 287.72 287.04 277.359 287.003 266.926C286.984 261.595 286.498 256.282 286.427 250.952C286.341 244.54 287.646 238.132 292.422 233.478C294.654 231.304 297.201 230.323 300.211 229.702C306.95 228.309 314.263 228.923 321.122 228.94L350.337 229.013Q350.172 232.655 350.089 236.299C349.965 243.036 350.334 250.591 355.449 255.633C358.839 258.973 363.839 260.427 368.464 260.892C375.75 261.625 383.503 261.074 390.847 261.06L440.236 260.73L540.872 260.749C553.793 260.77 566.707 261.212 579.627 261.046L556.483 285.717C552.602 289.851 548.938 294.144 544.807 298.04L287.114 298.155Z"/>
	<path fill="#9B9799" d="M628.384 252.284L395.863 252.51C387.882 252.551 369.437 253.828 363.865 247.952C361.792 245.765 360.626 242.793 360.031 239.88C358.353 231.669 359.315 213.111 359.3 204.018C359.291 198.611 359.087 192.157 363.362 188.141C368.811 183.023 378.844 184.425 385.772 184.644Q385.594 191.195 385.847 197.744C389.111 197.392 392.236 197.409 395.512 197.531L395.507 185.027L446.821 185.027C446.662 189.228 446.394 193.459 446.554 197.661C449.963 197.331 453.127 197.304 456.543 197.553L456.507 185.035Q482.877 184.587 509.25 184.781L509.339 197.563C512.604 197.213 515.704 197.353 518.974 197.563C519.293 193.444 519.054 189.15 519.06 185.01C536.687 185.137 554.36 184.739 571.997 184.738C571.914 187.7 571.049 194.347 572.545 196.899L573.83 197.174C576.212 197.095 578.529 197.009 580.905 197.293C581.355 193.206 581.385 189.17 581.388 185.062Q607.45 184.878 633.512 185.027C633.527 189.204 633.418 193.419 633.564 197.591C636.831 197.288 639.74 197.262 643.009 197.586L643.012 185.508L658.402 185.494C661.51 185.491 664.419 185.255 666.873 187.511C669.641 190.057 668.882 199.884 668.852 203.679C668.775 213.167 669.693 237.203 668.084 245.032C667.743 246.689 667.059 248.36 665.807 249.534C664.673 250.598 663.363 251.325 661.858 251.716C654.816 253.548 636.253 252.784 628.384 252.284Z"/>
	<path fill="#9B9B9B" d="M573.83 197.174C576.212 197.095 578.529 197.009 580.905 197.293C583.655 199.286 586.184 202.114 587.059 205.47C587.729 208.037 587.095 210.64 585.681 212.842C584.078 215.34 581.479 217.235 578.561 217.848Q578.072 217.947 577.575 217.998Q577.079 218.049 576.58 218.052Q576.081 218.054 575.584 218.008Q575.087 217.961 574.597 217.866Q574.107 217.772 573.628 217.63Q573.15 217.487 572.688 217.299Q572.225 217.111 571.784 216.879Q571.342 216.646 570.925 216.372C568.64 214.857 567.373 212.384 566.894 209.738C566.295 206.423 566.869 203.902 568.847 201.142C570.141 199.335 571.557 197.565 573.83 197.174Z"/>
	<path fill="#9B9B9B" d="M446.554 197.661C449.963 197.331 453.127 197.304 456.543 197.553C458.925 199.703 461.034 202.833 461.753 205.99C462.346 208.593 461.987 211.294 460.436 213.498C457.982 216.983 454.558 217.708 450.653 218.484C448.415 217.726 446.023 217.067 444.216 215.475C442.217 213.713 440.956 211.558 440.888 208.85C440.777 204.455 443.728 200.706 446.554 197.661Z"/>
	<path fill="#9B9B9B" d="M633.564 197.591C636.831 197.288 639.74 197.262 643.009 197.586C646.354 200.339 647.895 202.838 649.431 206.809C648.855 209.185 648.261 211.698 646.835 213.729C644.518 217.032 641.231 217.839 637.506 218.561C634.77 217.476 632.142 216.319 630.201 214.028C628.461 211.973 627.436 209.464 627.689 206.746C628.05 202.865 630.75 200.01 633.564 197.591Z"/>
	<path fill="#9B9B9B" d="M509.339 197.563C512.604 197.213 515.704 197.353 518.974 197.563C520.012 199.338 521.746 200.807 523.19 202.264C523.627 203.971 524.07 205.748 524.289 207.497C524.613 210.083 523.857 213.016 522.194 215.039C520.487 217.115 517.899 218.196 515.251 218.329C512.123 218.485 508.948 217.303 506.632 215.205C504.645 213.405 503.357 210.924 503.342 208.215C503.316 203.64 506.365 200.583 509.339 197.563Z"/>
	<path fill="#9B9B9B" d="M385.847 197.744C389.111 197.392 392.236 197.409 395.512 197.531C397.583 199.515 399.363 201.576 400.254 204.358C401.18 207.249 400.912 210.368 399.4 213.013Q399.122 213.5 398.796 213.957Q398.471 214.413 398.102 214.835Q397.732 215.257 397.323 215.64Q396.913 216.023 396.467 216.363Q396.021 216.703 395.544 216.997Q395.066 217.291 394.562 217.536Q394.058 217.781 393.531 217.975Q393.005 218.168 392.462 218.308C390.012 218.927 387.393 218.635 385.216 217.324C381.511 215.095 380.463 211.528 379.481 207.605C380.518 203.049 381.965 200.384 385.847 197.744Z"/>
	<path fill="#9C9194" d="M658.402 185.494C661.51 185.491 664.419 185.255 666.873 187.511C669.641 190.057 668.882 199.884 668.852 203.679C668.775 213.167 669.693 237.203 668.084 245.032C667.743 246.689 667.059 248.36 665.807 249.534C664.673 250.598 663.363 251.325 661.858 251.716C654.816 253.548 636.253 252.784 628.384 252.284C625.927 251.08 615.632 251.748 612.611 251.746L612.989 251.903L613.179 251.364C616.616 251.431 620.121 251.317 623.552 251.099C634.192 250.425 643.787 247.373 650.97 239.043C661.678 226.626 659.625 200.953 658.402 185.494Z"/>
	<path fill="#332E2E" d="M287.501 492.498L750.976 493.034L750.936 739.819L750.956 812.098C750.984 824.231 751.998 836.426 750.879 848.538C750.407 853.648 748.44 857.261 745.387 861.227C739.675 865.858 734.416 866.829 727.3 866.959C697.481 867.506 667.543 866.945 637.714 866.948L455.048 866.964L356.407 866.984L326.174 866.973C320.693 866.969 314.919 867.318 309.476 866.765C303.476 866.157 297.773 863.872 293.476 859.546C289.652 855.694 287.8 850.59 287.332 845.246C286.273 833.153 287.351 820.597 287.402 808.449L287.457 735.347L287.501 492.498Z"/>
	<path fill="#9B9B9B" d="M349.462 799.241C357.417 799.151 401.824 798.158 406.657 800.5C407.148 801.244 407.481 801.875 407.702 802.749C409.145 808.46 409.284 821.021 407.993 826.759C407.562 828.676 406.633 830.266 405.631 831.935C400.88 832.245 396.14 832.264 391.381 832.286C384.135 832.363 376.889 831.964 369.642 831.98C360.559 832 343.307 833.767 335.194 831.334C333.609 830.057 333.118 828.402 332.71 826.465C331.684 821.604 331.077 804.455 334.287 800.749C336.225 798.512 346.441 799.346 349.462 799.241Z"/>
	<path fill="#9B9B9B" d="M432.454 799.228C442.438 799.237 500.918 797.311 505.532 800.893C506.718 801.814 507.344 803.887 507.538 805.305C508.186 810.065 509.092 826.553 505.714 830.235C504.578 831.473 503.158 831.364 501.625 831.51L452.183 831.483C446.197 831.537 440.058 832.419 434.088 832.091C432.379 831.998 430.992 831.742 429.4 831.121C427.618 829.195 427.009 826.924 426.573 824.376C425.648 818.971 424.598 805.121 428.206 800.725C429.263 799.437 430.919 799.419 432.454 799.228Z"/>
	<path fill="#9B9B9B" d="M620.346 798.496C632.096 798.483 690.91 797.22 697.157 799.825C698.254 801.485 698.427 803.368 698.54 805.315C698.878 811.103 699.816 822.457 698.204 827.889C697.772 829.346 696.867 830.4 695.87 831.511C682.039 831.348 668.085 831.63 654.247 831.787C646.462 831.876 628.347 833.59 621.684 831.192C620.4 830.73 619.851 829.988 619.315 828.774C616.939 823.391 617.998 803.817 620.346 798.496Z"/>
	<path fill="#9B9B9B" d="M540.817 798.714C546.811 798.535 552.87 798.975 558.878 798.964C568.829 798.944 594.465 797.235 602.773 800.3C603.865 801.508 604.15 802.711 604.425 804.276C605.247 808.954 605.824 826.586 602.89 830.037C600.257 833.134 591.958 832.052 588.125 832.022C578.583 832.083 569.049 831.744 559.509 831.772C550.257 831.799 532.449 833.636 524.351 830.902C523.307 829.727 523.045 828.471 522.792 826.959C522.03 822.411 521.488 804.022 524.371 800.783C527.293 797.5 536.594 798.947 540.817 798.714Z"/>
	<path d="M532.977 622.259C542.336 621.961 551.754 622.25 561.123 622.168C570.583 622.085 580.251 621.534 589.682 622.271C592.502 622.491 595.473 622.766 598.012 624.077C598.461 624.928 598.728 625.782 598.966 626.713C601.315 635.903 599.409 648.606 599.443 658.185C599.475 667.317 600.203 676.821 599.555 685.909C599.433 687.611 599.264 690.167 598.144 691.559C596.793 693.238 594.181 692.965 592.27 693.01C582.041 692.997 533.933 694.43 528.098 691.388C526.945 690.787 526.553 689.967 526.218 688.767C523.935 680.591 525.921 666.593 525.852 657.783C525.781 648.648 524.852 639.255 525.604 630.156C525.758 628.282 526.06 625.5 527.255 623.965C528.54 622.314 531.087 622.405 532.977 622.259Z"/>
	<path d="M334.337 622.489C345.153 622.506 399.157 621.023 405.731 624.014C406.666 625.473 406.904 627.347 407.087 629.047C408.024 637.739 406.949 647.077 406.942 655.831C406.934 666.096 408.58 677.436 406.945 687.574C406.568 689.908 405.966 691.072 404.47 692.898C391.901 693.697 379.181 693.231 366.589 693.293C357.333 693.339 347.368 694.264 338.212 692.912C336.159 692.609 334.566 691.866 332.773 690.855C331.082 678.512 331.937 665.92 331.936 653.489C331.935 644.955 331.12 635.648 332.445 627.242C332.73 625.432 333.388 624.039 334.337 622.489Z"/>
	<path fill="#998E8F" d="M584.843 529.226C587.942 529.218 594.03 528.657 596.657 530.324C598.074 531.223 598.153 532.174 598.4 533.733C599.868 542.971 599.28 554.484 599.321 563.927C599.365 573.837 599.991 584.372 598.846 594.217C598.583 596.478 598.213 599.167 596.821 601.022C590.155 603.123 550.407 602.35 541.063 602.042Q537.499 602.002 533.937 601.876C532.086 601.794 528.339 601.504 527.164 599.879C523.791 595.219 524.94 540.675 525.85 532.074L530.124 529.499C548.292 529.455 566.708 530.144 584.843 529.226Z"/>
	<path fill="#9B9799" d="M624.292 622.518C635.057 622.529 690.541 620.429 696.261 624.13C697.788 625.118 697.901 626.142 698.223 627.853C699.807 636.27 698.299 648.217 698.298 656.947C698.298 666.101 699.624 675.704 698.425 684.783C698.018 687.866 697.186 690.197 695.452 692.782L651.893 692.771C644.722 692.781 637.024 693.339 629.901 692.634C627.249 692.372 624.917 691.91 622.594 690.577C621.332 689.073 621.18 686.448 621.045 684.532C620.455 676.176 621.326 667.49 621.331 659.095C621.335 650.236 620.589 641.369 620.98 632.501C621.154 628.56 621.226 625.325 624.292 622.518Z"/>
	<path fill="#9B9B9B" d="M442.79 621.725C449.562 621.514 456.367 621.951 463.146 621.916C475.147 621.855 490.67 620.069 502.182 623.377C505.465 635.757 503.837 674.624 503.499 689.249C502.363 690.711 501.072 692.063 499.837 693.442Q494.442 693.717 489.041 693.76C476.785 693.159 464.385 693.517 452.108 693.53C444.727 693.539 435.944 694.441 428.808 692.459C427.301 691 427.05 687.813 426.832 685.787C425.62 674.562 426.46 662.477 426.472 651.168C426.479 643.581 425.702 635 426.68 627.511C426.876 626.015 427.318 624.396 428.404 623.289C430.852 620.792 439.282 621.896 442.79 621.725Z"/>
	<path fill="#9B9B9B" d="M389.872 709.725C394.933 709.449 402.332 709.146 406.584 712.223C407.781 714.039 407.944 716.207 408.098 718.331C408.599 725.221 408.033 732.264 408.127 739.18C408.271 749.768 409.261 767.027 408.078 776.995C407.802 779.313 407.445 781.221 405.905 783.022C402.658 784.677 361.209 783.515 353.125 783.545Q348.575 783.753 344.022 783.879C341.352 783.927 335.524 784.078 333.795 781.593C330.586 776.978 332.151 723.802 332.537 714.043C333.565 712.602 334.758 711.305 335.928 709.98C353.898 709.95 371.922 710.535 389.872 709.725Z"/>
	<path fill="#9B9B9B" d="M335.245 528.674Q338.853 528.567 342.463 528.522L379.863 528.456C386.904 528.454 394.739 527.835 401.674 528.937C403.223 529.183 404.636 529.573 405.74 530.758C406.872 531.974 407.397 533.552 407.587 535.176C408.812 545.651 407.553 556.989 407.47 567.541C407.408 575.498 408.077 583.437 407.821 591.41C407.678 595.874 407.463 599.511 404.054 602.697C403.283 602.8 402.537 602.894 401.76 602.936C388.342 603.673 374.688 603.334 361.253 603.322C353.86 603.314 343.86 604.168 336.759 602.591C335.797 602.378 334.906 601.781 334.218 601.087C332.98 599.838 332.576 598.227 332.353 596.529C331.272 588.296 331.963 579.344 331.979 571.037C331.997 561.733 331.625 552.426 331.678 543.127C331.709 537.759 331.221 532.647 335.245 528.674Z"/>
	<path fill="#9B9B9B" d="M439.303 709.732C449.643 709.529 459.988 709.978 470.33 709.965C478.22 709.954 486.202 709.351 494.08 709.792C495.706 709.883 500.731 709.986 501.758 711.191C505.867 716.012 504.251 741.177 504.203 748C504.168 753.028 504.653 780.14 501.618 782.404C499.439 784.029 493.413 783.316 490.639 783.284C481.562 783.641 434.3 784.743 428.085 782.402C426.745 780.728 426.899 775.635 426.796 773.482C426.491 767.068 424.98 714.856 428.13 711.798C430.939 709.071 435.666 709.852 439.303 709.732Z"/>
	<path fill="#9B9B9B" d="M643.108 528.724C649.275 528.976 693.059 527.73 695.126 530.101C697.202 532.483 697.433 538.246 697.51 541.393C697.71 549.637 697.299 557.93 697.39 566.185C697.492 575.537 698.393 585.839 697.249 595.082C696.949 597.512 696.42 600.563 694.692 602.391C688.819 604.222 680.392 602.925 674.255 602.743C667.566 602.757 625.291 604.192 621.836 601.074C620.492 598.685 619.995 596.138 619.698 593.429C618.91 586.237 619.652 578.364 619.678 571.113C619.722 558.468 619.177 545.902 620.173 533.272C621.431 531.573 622.627 530.267 624.292 528.963C630.573 528.986 636.833 529 643.108 528.724Z"/>
	<path fill="#9B9B9B" d="M430.397 528.52Q449.98 528.401 469.562 528.576C480.383 528.601 491.506 527.534 502.088 530.234C502.688 532.004 503.162 533.662 503.334 535.533C504.372 546.836 503.538 558.436 503.533 569.778C503.529 578.932 504.856 588.615 503.219 597.67C502.722 600.418 501.358 601.425 499.118 602.903C486.138 603.952 473.232 603.059 460.242 603.062C452.273 603.063 444.083 604.046 436.144 603.303C433.19 603.026 430.311 602.466 427.719 600.965C427.005 599.593 426.746 598.387 426.579 596.849C425.67 588.45 425.948 535.55 427.431 531.019C427.928 529.502 429.091 529.238 430.397 528.52Z"/>
	<path fill="#9B9B9B" d="M635.452 710.244C642.362 710.123 649.278 710.463 656.189 710.419C668.73 710.341 685.902 708.325 697.711 712.375C699.077 719.257 698.51 726.833 698.516 733.823Q698.386 750.307 698.774 766.786C698.894 771.173 699.524 779.838 696.094 782.973C693.91 784.969 684.033 784.106 680.776 784.075C671.6 784.613 662.3 784.202 653.104 784.324C642.1 784.471 630.273 785.783 619.398 783.965C618.346 779.713 618.027 775.256 617.826 770.892C617.529 764.439 616.965 715.363 618.969 712.705C621.319 709.587 631.828 710.345 635.452 710.244Z"/>
	<path fill="#9B9B9B" d="M538.451 710.243L571.485 710.257C580.463 710.249 594.077 708.364 602.351 711.423C604.064 713.485 604.4 717.36 604.629 719.999C605.383 728.681 604.539 737.772 604.529 746.5C604.518 756.488 605.277 766.553 604.465 776.523C604.291 778.666 604.253 781.553 602.839 783.243C599.236 785.373 594.119 784.593 590.036 784.505L551.978 784.553C545.321 784.589 538.501 785.042 531.862 784.561C529.174 784.366 526.628 784.052 524.152 782.918C523.408 781.369 523.185 779.847 523.043 778.14C522.08 766.594 522.786 754.702 522.778 743.103C522.772 733.466 521.528 723.117 523.273 713.628L526.373 710.498C530.404 710.538 534.424 710.385 538.451 710.243Z"/>
</svg>
