<?xml version="1.0" encoding="utf-8" ?>
<svg xmlns="http://www.w3.org/2000/svg" xmlns:xlink="http://www.w3.org/1999/xlink" width="411" height="411">
	<path fill="#6D757C" transform="scale(0.401367 0.401367)" d="M154.048 487.025C154.934 487.335 155.661 487.718 156.485 488.164C157.071 489.806 156.695 490.715 156.387 492.41C155.553 492.107 154.904 491.743 154.14 491.299C153.475 489.675 153.814 488.742 154.048 487.025Z"/>
	<path fill="#6D757C" transform="scale(0.401367 0.401367)" d="M160.429 470.701L162.425 472.175C162.936 473.905 162.362 474.752 161.809 476.438C160.577 476.142 160.331 476.17 159.495 475.247C159.164 473.596 159.866 472.224 160.429 470.701Z"/>
	<path fill="#6D757C" transform="scale(0.401367 0.401367)" d="M188.137 448.246C188.747 448.304 189.396 448.341 189.998 448.477C191.218 448.753 191.692 448.919 192.34 449.988L191.853 451.691C190.428 451.814 189.225 452.009 187.86 451.453C187.454 450.052 187.731 449.617 188.137 448.246Z"/>
	<path fill="#6D757C" transform="scale(0.401367 0.401367)" d="M165.76 464.222C166.655 464.758 166.952 465.113 167.434 466.036C167.248 467.842 165.87 468.956 164.698 470.231C163.952 469.734 163.77 469.389 163.308 468.642C163.4 466.79 164.655 465.605 165.76 464.222Z"/>
	<path fill="#6D757C" transform="scale(0.401367 0.401367)" d="M152.796 503.298C153.799 503.629 154.488 503.984 155.345 504.602C155.894 506.271 155.437 507.242 155.061 508.936C153.553 508.451 153.279 508.344 152.221 507.181C151.934 505.591 152.238 504.745 152.796 503.298Z"/>
	<path fill="#6D757C" transform="scale(0.401367 0.401367)" d="M170.394 459.172C171.631 459.655 171.78 459.686 172.529 460.767C172.432 462.288 171.359 463.356 170.472 464.523C169.38 464.105 168.874 463.901 168.203 462.926C168.45 461.279 169.384 460.474 170.394 459.172Z"/>
	<path fill="#6D757C" transform="scale(0.401367 0.401367)" d="M154.315 561.957C155.337 562.149 156.149 562.507 157.089 562.945C158.263 564.234 158.263 565.757 158.476 567.41C157.173 567.286 156.425 567.076 155.282 566.436C154.235 565.04 154.363 563.621 154.315 561.957Z"/>
	<path fill="#6D757C" transform="scale(0.401367 0.401367)" d="M176.433 454.493C177.548 454.936 178.039 455.183 178.741 456.167C178.234 457.789 177.102 458.477 175.871 459.621C175.833 459.608 175.792 459.602 175.756 459.583C174.563 458.954 174.38 458.98 173.981 457.734C174.47 456.235 175.315 455.525 176.433 454.493Z"/>
	<path fill="#6D757C" transform="scale(0.401367 0.401367)" d="M152.38 495.155C153.583 495.285 154.385 495.498 155.475 496.026C156.376 497.364 156.019 499.153 155.953 500.698C154.817 500.569 154.06 500.324 153.031 499.827C152.095 498.428 152.357 496.769 152.38 495.155Z"/>
	<path fill="#6D757C" transform="scale(0.401367 0.401367)" d="M153.178 553.293C154.349 553.566 155.185 553.902 156.227 554.502C157.269 556.025 156.89 557.612 156.744 559.352C155.515 559.073 154.941 558.782 153.982 557.965C153.149 556.368 153.186 555.069 153.178 553.293Z"/>
	<path fill="#6D757C" transform="scale(0.401367 0.401367)" d="M183.152 451.012C184.243 451.292 184.659 451.386 185.56 452.109C185.052 453.606 183.123 454.518 181.814 455.431C180.822 455.429 180.356 455.306 179.489 454.824L179.435 453.977C180.518 452.453 181.507 451.867 183.152 451.012Z"/>
	<path fill="#6D757C" transform="scale(0.401367 0.401367)" d="M151.495 511.677C152.851 511.836 153.648 511.932 154.842 512.662C155.771 514.011 155.439 515.43 155.316 516.975C154.231 517.027 153.573 517.016 152.564 516.597C151.502 514.971 151.637 513.563 151.495 511.677Z"/>
	<path fill="#6D757C" transform="scale(0.401367 0.401367)" d="M152.379 520.111C153.746 520.347 154.119 520.311 155.132 521.225C155.758 522.775 155.453 524.229 155.275 525.84C153.593 525.202 152.425 524.691 151.505 523.078C151.553 521.635 151.643 521.355 152.379 520.111Z"/>
	<path fill="#6D757C" transform="scale(0.401367 0.401367)" d="M153.212 528.083C153.524 528.202 153.862 528.267 154.147 528.439C155.209 529.08 155.381 529.921 155.682 531.007C155.217 532.797 154.977 533.009 153.72 534.254C153.56 534.198 153.391 534.164 153.241 534.086C152.158 533.518 152.05 533.03 151.587 531.957C151.682 530.225 152.198 529.464 153.212 528.083Z"/>
	<path fill="#6D757C" transform="scale(0.401367 0.401367)" d="M152.31 536.426C153.402 536.615 154.194 536.892 155.187 537.383C156.25 538.838 155.906 540.624 155.847 542.337C154.418 542.054 153.678 541.921 152.527 540.953C151.737 539.46 152.109 538.028 152.31 536.426Z"/>
	<path fill="#6D757C" transform="scale(0.401367 0.401367)" d="M152.888 545.092C153.917 545.341 154.653 545.757 155.559 546.297C156.61 547.739 156.529 549.19 156.618 550.897C154.797 550.686 153.891 550.675 152.618 549.331C152.304 547.803 152.589 546.586 152.888 545.092Z"/>
	<path fill="#070718" transform="scale(0.401367 0.401367)" d="M831.235 608.028C831.031 607.847 830.821 607.673 830.623 607.485C829.237 606.17 828.48 603.845 828.299 601.977C828.828 600.77 829.111 600.157 830.435 599.713C832.539 599.008 835.732 599.607 837.521 600.883C838.565 601.627 838.958 602.164 839.297 603.382C838.771 605.483 837.448 606.497 835.637 607.62C834.474 608.342 833.213 608.573 831.857 608.62L831.235 608.028Z"/>
	<path fill="#070718" transform="scale(0.401367 0.401367)" d="M791.572 599.576C793.185 599.49 794.751 599.467 796.257 600.147C797.461 600.69 798.403 601.641 798.773 602.931C799.357 604.966 797.853 607.592 796.868 609.304C794.558 609.15 791.924 608.807 790.075 607.273C789.324 606.65 788.762 605.711 788.734 604.729C788.671 602.495 790.151 601.09 791.572 599.576Z"/>
	<path fill="#070718" transform="scale(0.401367 0.401367)" d="M815.467 621.741C815.497 614.138 816.305 600.211 815.479 593.211C815.187 590.732 812.327 589.886 811.97 587.302C811.795 586.037 812.047 584.51 812.849 583.501C813.015 583.292 813.199 583.094 813.407 582.928C814.64 581.946 816.319 581.893 817.779 582.265C819.192 582.625 820.552 583.471 821.245 584.793C821.819 585.887 821.692 586.981 821.213 588.078C820.601 589.483 819.263 590.348 818.012 591.108C817.812 591.23 817.614 591.356 817.412 591.477C817.29 591.55 817.165 591.619 817.042 591.69C816.949 601.548 817.73 611.945 816.797 621.714L815.467 621.741Z"/>
	<path fill="#070718" transform="scale(0.401367 0.401367)" d="M549.292 79.6631C555.362 79.2828 561.592 78.6314 567.606 79.794C565.355 82.2106 561.159 82.6166 558.041 83.2873C557.675 87.3538 557.383 91.4446 556.742 95.4782C553.805 96.2806 550.198 97.7132 547.209 96.6395L546.754 95.9203C548.093 90.5804 548.823 85.1406 549.292 79.6631Z"/>
	<path fill="#070718" transform="scale(0.401367 0.401367)" d="M502.487 110.072C505.802 111.328 509.139 112.339 512.55 113.303C508.805 119.175 506.462 125.205 504.24 131.779C502.027 130.76 497.866 130.068 496.523 128.012C495.341 122.759 500.268 114.805 502.487 110.072Z"/>
	<path fill="#070718" transform="scale(0.401367 0.401367)" d="M511.257 165.722C513.274 165.893 515.165 165.959 517.184 165.792C518.167 168.648 519.098 171.537 520.155 174.366C517.455 176.931 515.189 179.722 512.885 182.641C514.838 186.401 517.011 190.165 518.538 194.119C517.387 194.379 515.987 194.813 514.82 194.493C509.866 193.135 505.323 185.431 502.846 181.249C506.782 176.144 509.683 172.091 511.257 165.722Z"/>
	<path fill="#070718" transform="scale(0.401367 0.401367)" d="M506.67 132.394C509.504 133.279 512.431 134.053 515.143 135.266C514.761 138.528 514.354 141.766 513.793 145.002L505.797 145.091L501.984 147.821C501.973 153.757 501.891 159.518 502.984 165.382C500.149 165.049 497.509 164.604 494.751 163.855C493.266 157.616 493.054 151.01 492.748 144.62C496.396 144.569 499.912 144.531 503.503 143.827C504.907 140.089 506.311 136.398 506.67 132.394Z"/>
	<path fill="#6D757C" transform="scale(0.401367 0.401367)" d="M871.141 858.266C872.128 858.381 873.015 858.471 873.917 858.941C876.337 860.204 877.113 863.628 877.999 866.02C880.033 867.08 882.624 867.395 884.27 869.073C885.177 869.997 885.33 870.74 885.322 871.974C883.509 874.679 880.565 875.049 877.626 875.819C876.869 878.971 876.403 881.833 874.725 884.661C873.678 884.452 872.459 884.033 871.651 883.301C869.46 881.318 869.538 878.101 869.345 875.378C867.113 875.015 864.349 874.841 862.425 873.582C861.28 872.833 861.09 872.267 860.892 870.978C862.282 867.963 864.891 867.361 867.748 866.191C869.349 863.62 870.245 861.132 871.141 858.266ZM872.043 866.878C871.115 868.299 870.392 869.215 870.477 870.997C871.155 872.201 871.716 872.855 873.08 873.323C873.709 873.539 874.058 873.573 874.679 873.675C875.75 872.257 876.598 871.29 876.761 869.481C876.316 868.34 876.017 867.645 874.75 867.252C873.913 866.993 872.915 866.958 872.043 866.878Z"/>
	<path fill="#6D757C" transform="scale(0.401367 0.401367)" d="M537.038 904.477C538.765 904.492 540.303 904.355 541.649 905.683C543.96 907.962 543.493 912.368 543.528 915.353C547.361 915.988 550.973 916.267 553.394 919.632C553.493 921.028 553.511 921.292 552.482 922.392C550.378 924.642 546.298 924.578 543.466 924.676C543.213 928.523 543.058 931.748 541.026 935.154C540.501 935.255 540.04 935.363 539.495 935.369C538.283 935.382 537.099 935.004 536.255 934.103C534.164 931.869 534.547 927.518 534.492 924.674C532.728 924.652 530.744 924.756 529.016 924.393C527.078 923.987 525.613 922.762 524.561 921.151C524.436 919.884 524.308 919.302 525.145 918.207C527.094 915.659 530.884 915.707 533.775 915.408C534.06 911.408 534.394 907.672 537.038 904.477Z"/>
	<path fill="#6D757C" transform="scale(0.401367 0.401367)" d="M671.058 90.2494C672.107 90.383 673.075 90.6163 674.01 91.1208C677.447 92.9739 678.23 98.4842 679.118 101.897L679.529 101.853L680.165 102.78L680.786 101.889C681.47 101.948 681.498 101.934 682.287 102.101C684.808 102.637 687.333 103.549 688.73 105.83C688.717 106.92 688.783 107.261 688.037 108.136C685.741 110.828 681.664 111.382 678.369 111.784C677.707 115.83 676.789 119.102 674.885 122.701C673.475 122.722 672.086 122.543 670.941 121.656C668.111 119.461 667.742 115.184 667.401 111.883C663.293 110.848 660.033 110.09 657.626 106.307C657.535 105.165 657.325 104.512 658.276 103.64C660.438 101.66 664.183 102.023 666.888 102.063C667.78 97.7305 668.665 94.0468 671.058 90.2494Z"/>
	<path fill="#6D757C" transform="scale(0.401367 0.401367)" d="M111.629 519.085C112.126 519.243 112.311 519.284 112.816 519.53C115.928 521.044 117.584 527.894 118.799 531.058C122.037 532.786 125.504 533.736 128.385 536.091C128.621 536.737 128.97 537.044 128.565 537.692C127.171 539.929 122.615 540.735 120.219 541.46C117.774 544.897 116.198 548.931 114.097 552.592C109.054 551.1 107.531 545.322 104.938 541.222Q102.718 540.856 100.533 540.321C98.3754 539.787 97.1351 539.323 95.976 537.376L96.3129 536.086C99.1092 533.062 102.704 532.081 106.472 530.702Q108.997 524.87 111.629 519.085ZM112.716 532.559C111.391 533.681 110.4 534.48 109.702 536.095C109.742 537.417 109.769 538.193 110.828 539.124C111.563 539.769 112.677 540.229 113.547 540.664C114.829 539.381 115.866 538.444 116.428 536.689C116.252 535.352 116.145 534.618 114.995 533.772C114.321 533.277 113.47 532.919 112.716 532.559Z"/>
	<path fill="#6D757C" transform="scale(0.401367 0.401367)" d="M236.344 893.196C238.362 893.348 240.336 893.662 242.214 894.454C245.802 895.967 248.557 898.487 249.965 902.165Q250.216 902.829 250.401 903.514Q250.586 904.199 250.704 904.899Q250.822 905.599 250.872 906.307Q250.922 907.016 250.903 907.725Q250.884 908.435 250.796 909.139Q250.708 909.844 250.553 910.536Q250.397 911.229 250.176 911.903Q249.954 912.577 249.668 913.227C247.354 918.423 243.136 920.474 238.117 922.312C234.554 922.131 231.329 921.441 228.384 919.318Q227.781 918.887 227.225 918.397Q226.669 917.907 226.166 917.364Q225.662 916.82 225.216 916.228Q224.77 915.637 224.387 915.003Q224.003 914.369 223.686 913.699Q223.368 913.03 223.12 912.332Q222.872 911.633 222.696 910.914Q222.519 910.194 222.417 909.46C221.875 905.609 222.739 901.757 225.148 898.667C228.01 894.994 231.872 893.658 236.344 893.196Z"/>
	<path fill="#FEFEFE" transform="scale(0.401367 0.401367)" d="M233.734 900.487C236.626 900.385 239.349 900.649 241.557 902.737C242.925 904.032 243.623 905.747 243.575 907.626C243.49 911.026 241.515 912.841 239.111 914.963C236.303 915.093 233.509 914.975 231.345 912.929C230.045 911.7 229.39 909.913 229.446 908.14C229.553 904.786 231.374 902.643 233.734 900.487Z"/>
	<path fill="#6D757C" transform="scale(0.401367 0.401367)" d="M796.196 329.632C799.196 330.11 802.136 330.85 804.699 332.539C807.976 334.699 810.389 338.073 811.16 341.941Q811.297 342.637 811.364 343.344Q811.431 344.05 811.426 344.76Q811.422 345.469 811.347 346.175Q811.272 346.88 811.126 347.575Q810.981 348.269 810.767 348.946Q810.552 349.622 810.272 350.274Q809.991 350.926 809.646 351.546Q809.302 352.166 808.897 352.749C806.05 356.927 801.615 359.072 796.762 359.951C793.922 359.672 791.326 359.268 788.856 357.734C785.409 355.593 782.908 352.257 782.023 348.273Q781.934 347.884 781.865 347.491Q781.797 347.097 781.749 346.701Q781.701 346.304 781.675 345.906Q781.648 345.508 781.642 345.109Q781.636 344.709 781.651 344.31Q781.666 343.911 781.702 343.514Q781.738 343.116 781.795 342.721Q781.852 342.326 781.929 341.934Q782.007 341.542 782.105 341.155Q782.203 340.768 782.321 340.387Q782.439 340.006 782.577 339.631Q782.715 339.256 782.873 338.89Q783.03 338.523 783.207 338.165Q783.384 337.807 783.579 337.458Q783.774 337.11 783.987 336.772Q784.2 336.435 784.431 336.109C787.332 332.015 791.407 330.391 796.196 329.632ZM794.757 336.937C792.097 338.255 790.087 339.589 789.128 342.543C788.442 344.658 788.634 346.865 789.773 348.782C790.952 350.766 793.085 352.124 795.305 352.641C796.347 352.883 797.326 352.922 798.39 352.911C801.044 351.314 803.161 349.668 803.882 346.505C804.383 344.303 804.161 342.057 802.825 340.185C801.434 338.238 798.834 337.094 796.498 336.886C795.91 336.833 795.343 336.887 794.757 336.937Z"/>
	<path fill="#070718" transform="scale(0.401367 0.401367)" d="M300.642 282.859L315.253 268.364C321.282 274.943 337.436 286.996 337.224 296.17C337.162 298.845 335.865 301.156 333.897 302.917C332.125 304.503 329.96 305.382 327.563 305.176C318.986 304.441 306.623 288.56 300.642 282.859Z"/>
	<path fill="#6D757C" transform="scale(0.401367 0.401367)" d="M853.366 269.194C857.58 268.823 862.244 269.576 866.005 271.539C871.57 274.444 875.394 279.9 877.011 285.89C878.66 291.997 878.037 298.649 874.706 304.095C870.781 310.51 864.834 313.298 857.839 315.082C852.427 315.253 847.038 314.084 842.465 311.107Q841.983 310.794 841.517 310.457Q841.052 310.12 840.604 309.76Q840.156 309.4 839.727 309.017Q839.298 308.634 838.89 308.23Q838.481 307.826 838.093 307.402Q837.706 306.977 837.341 306.534Q836.975 306.09 836.633 305.628Q836.291 305.166 835.973 304.688Q835.654 304.209 835.361 303.715Q835.068 303.221 834.8 302.712Q834.532 302.203 834.291 301.682Q834.049 301.16 833.835 300.627Q833.621 300.094 833.434 299.55Q833.247 299.007 833.088 298.454Q832.929 297.902 832.798 297.342Q832.668 296.783 832.566 296.217Q832.457 295.644 832.377 295.066Q832.298 294.487 832.248 293.906Q832.198 293.324 832.179 292.741Q832.159 292.158 832.169 291.574Q832.179 290.991 832.219 290.409Q832.26 289.827 832.33 289.247Q832.4 288.668 832.499 288.093Q832.599 287.518 832.728 286.949Q832.857 286.38 833.015 285.818Q833.173 285.256 833.36 284.703Q833.547 284.15 833.762 283.608Q833.977 283.065 834.219 282.534Q834.462 282.003 834.731 281.486Q835.001 280.968 835.296 280.465Q835.592 279.962 835.913 279.474Q836.234 278.987 836.58 278.517C840.796 272.805 846.499 270.128 853.366 269.194Z"/>
	<path fill="#6D757C" transform="scale(0.401367 0.401367)" d="M150.485 853.641C155.897 853.049 160.995 853.63 165.887 856.164Q166.425 856.44 166.949 856.742Q167.473 857.045 167.98 857.373Q168.488 857.702 168.979 858.056Q169.469 858.409 169.941 858.788Q170.413 859.166 170.865 859.567Q171.317 859.969 171.748 860.393Q172.18 860.817 172.589 861.262Q172.998 861.707 173.385 862.173Q173.771 862.638 174.133 863.122Q174.495 863.607 174.832 864.109Q175.17 864.611 175.481 865.129Q175.792 865.648 176.077 866.181Q176.362 866.715 176.619 867.262Q176.877 867.809 177.106 868.369Q177.336 868.928 177.536 869.499Q177.737 870.069 177.909 870.649Q178.087 871.254 178.234 871.867Q178.381 872.481 178.497 873.1Q178.613 873.72 178.698 874.345Q178.783 874.97 178.836 875.598Q178.889 876.227 178.911 876.857Q178.932 877.487 178.922 878.118Q178.912 878.748 178.87 879.378Q178.829 880.007 178.755 880.633Q178.682 881.26 178.577 881.881Q178.473 882.503 178.337 883.119Q178.201 883.735 178.034 884.343Q177.868 884.951 177.671 885.55Q177.474 886.15 177.247 886.738Q177.02 887.326 176.764 887.903Q176.508 888.479 176.223 889.042Q175.939 889.604 175.626 890.152C171.762 896.801 165.749 900.578 158.46 902.432C152.738 902.732 147.534 902.439 142.394 899.556Q141.872 899.261 141.366 898.942Q140.859 898.622 140.369 898.278Q139.879 897.934 139.406 897.566Q138.933 897.199 138.479 896.808Q138.024 896.418 137.59 896.006Q137.155 895.594 136.741 895.161Q136.327 894.728 135.934 894.276Q135.542 893.823 135.172 893.352Q134.802 892.881 134.456 892.392Q134.109 891.904 133.787 891.399Q133.465 890.894 133.168 890.374Q132.871 889.854 132.6 889.32Q132.328 888.786 132.084 888.239Q131.839 887.692 131.621 887.134Q131.403 886.576 131.213 886.008Q131.022 885.441 130.86 884.864C129.091 878.427 129.969 871.166 133.335 865.388C137.215 858.725 143.291 855.544 150.485 853.641Z"/>
	<path fill="#070718" transform="scale(0.401367 0.401367)" d="M894.587 753.432C894.694 765.238 894.771 772.601 885.999 781.498C870.851 796.863 845.121 802.851 824.264 802.858C802.937 802.865 775.433 797.834 759.803 782.059C752.555 774.744 750.63 766.879 750.514 756.91C755.359 761.751 758.387 767.221 764.219 771.275C785.316 785.939 819.562 789.816 844.32 785.227C858.232 782.649 874.768 776.906 884.826 766.486C888.607 762.569 891.506 757.896 894.587 753.432Z"/>
	<path fill="#070718" transform="scale(0.401367 0.401367)" d="M556.166 844.406C558.257 846.364 560.366 848.164 562.741 849.774C569.239 854.181 576.172 858.089 582.89 862.155L617.404 883.076L645.706 900.118C651.835 903.755 658.211 908.018 664.905 910.489C669.539 912.199 675.017 912.35 679.846 911.346C683.639 910.557 687.24 908.946 690.645 907.131C710.407 896.598 729.148 883.506 748.332 871.907C758.154 865.97 767.94 859.949 777.848 854.158C784.196 850.448 790.987 847.036 796.972 842.768C800.03 840.587 801.908 838.474 803.947 835.361C804.001 840.946 803.594 845.325 799.296 849.448C794.283 854.257 786.929 858.15 780.986 861.744L749.634 880.429C735.288 889.171 721.155 898.24 706.731 906.857C699.812 910.991 692.785 915.592 685.413 918.867C680.954 920.848 676.064 921.305 671.24 921.04C666.887 920.802 662.406 919.87 658.456 917.994C645.233 911.714 630.56 901.246 617.702 893.454L578.172 869.672C571.364 865.557 562.419 861.445 556.878 855.758C556.284 851.961 555.94 848.255 556.166 844.406Z"/>
	<path fill="#007BFF" transform="scale(0.401367 0.401367)" d="M766.099 721.161C766.285 726.139 766.807 731.613 766.224 736.54C770.404 749.116 776.951 756.213 788.823 762.212C805.959 770.872 827.812 772.34 846.017 766.297C856.089 762.954 866.409 756.968 871.269 747.121C872.774 744.073 873.476 740.715 874.115 737.397C873.767 732.884 873.168 727.985 874.017 723.506C882.195 727.603 890.829 733.065 893.72 742.321C894.809 745.807 894.918 749.798 894.587 753.432C891.506 757.896 888.607 762.569 884.826 766.486C874.768 776.906 858.232 782.649 844.32 785.227C819.562 789.816 785.316 785.939 764.219 771.275C758.387 767.221 755.359 761.751 750.514 756.91C750.403 752.315 750.168 747.555 750.869 743.001C752.426 732.876 758.218 726.884 766.099 721.161Z"/>
	<path fill="#070718" transform="scale(0.401367 0.401367)" d="M766.224 736.54C770.404 749.116 776.951 756.213 788.823 762.212C805.959 770.872 827.812 772.34 846.017 766.297C856.089 762.954 866.409 756.968 871.269 747.121C872.774 744.073 873.476 740.715 874.115 737.397C874.817 740.736 875.6 744.448 875.318 747.867C874.805 754.065 871.139 759.331 866.488 763.244C852.171 775.289 830.206 777.73 812.246 776.178C798.169 774.962 780.53 770.652 771.16 759.127C765.618 752.31 765.337 744.805 766.224 736.54Z"/>
	<path fill="#007BFF" transform="scale(0.401367 0.401367)" d="M680.297 276.812C694.973 272.927 709.441 267.514 723.967 263.013C731.019 260.827 738.361 258.1 745.754 257.518C749.07 257.258 752.274 257.697 755.211 259.335C759.285 261.607 762.402 266.189 763.577 270.655C766.5 281.768 764.946 306.755 764.918 319.249C764.853 348.47 764.616 377.745 764.999 406.962C780.849 397.032 806.655 389.964 824.75 382.995L866.214 366.95C876.461 362.936 886.544 358.516 897.179 355.596C902.119 357.313 906.968 359.264 911.598 361.71C903.299 363.426 895.583 367.322 887.764 370.478Q875.258 375.418 862.652 380.097L814.515 398.109C803.168 402.255 791.463 405.888 780.594 411.214C777.149 412.903 774.322 415.239 772.156 418.449C769.96 421.703 768.911 425.827 768.416 429.694C767.434 437.37 768.09 445.429 768.27 453.159Q768.766 470.193 768.479 487.231C764.096 484.519 760.057 482.049 756.565 478.214C756.349 467.285 756.502 456.319 756.452 445.386C756.421 438.494 755.95 431.258 756.543 424.404C756.895 420.339 759.839 416.493 759.841 412.417L759.378 330.565C759.381 313.792 760.259 296.651 759.416 279.931C759.235 276.351 758.932 272.562 757.401 269.274C755.549 265.298 752.433 264.079 748.594 262.599C736.871 264.252 725.537 268.518 714.26 272.016C702.937 275.529 691.442 278.755 680.266 282.692C680.533 280.66 680.49 278.849 680.297 276.812Z"/>
	<path fill="#007BFF" transform="scale(0.401367 0.401367)" d="M846.508 611.631C843.184 604.643 842.77 598.497 845.407 591.148Q845.827 589.987 846.303 588.847Q846.779 587.708 847.31 586.593Q847.841 585.478 848.426 584.391Q849.011 583.303 849.648 582.246Q850.286 581.188 850.974 580.163Q851.662 579.137 852.4 578.147Q853.137 577.156 853.922 576.203Q854.707 575.25 855.538 574.336Q856.368 573.422 857.242 572.55Q858.117 571.678 859.032 570.85Q859.948 570.021 860.903 569.238Q861.859 568.456 862.851 567.721Q863.843 566.985 864.87 566.3Q865.897 565.614 866.956 564.979Q868.015 564.344 869.104 563.762Q870.193 563.179 871.309 562.651C889.754 554.063 912.374 553.789 932.269 556.159C926.718 578.148 919.232 603.292 898.634 615.752Q897.679 616.321 896.697 616.842Q895.714 617.362 894.707 617.834Q893.7 618.305 892.671 618.725Q891.642 619.146 890.593 619.515Q889.544 619.884 888.478 620.2Q887.412 620.516 886.332 620.779Q885.252 621.042 884.16 621.25Q883.068 621.459 881.967 621.613Q880.866 621.767 879.758 621.866Q878.651 621.965 877.54 622.009Q876.429 622.053 875.318 622.042Q874.206 622.031 873.096 621.964Q871.986 621.897 870.881 621.776Q869.776 621.654 868.678 621.477Q867.581 621.301 866.493 621.07Q865.406 620.839 864.331 620.554C858.522 619.045 853.447 616.442 848.388 613.269C845.526 616.639 842.869 620.047 840.345 623.677C838.104 627.379 835.71 631.035 832.723 634.179C834.027 630.261 835.828 626.818 837.797 623.203C840.588 619.305 843.269 615.17 846.508 611.631Z"/>
	<path fill="#070718" transform="scale(0.401367 0.401367)" d="M524.031 822.589C524.17 827.154 524.469 834.653 521.358 838.335C516.164 844.48 494 856.368 486.157 861.035L446.039 884.983L415.853 903.482C410.588 906.67 405.307 910.151 399.785 912.874C396.676 914.407 392.706 915.363 389.248 915.485C384.393 915.657 380.134 913.839 375.932 911.631C368.993 907.986 362.857 903.11 356.027 899.272Q302.175 868.902 249.147 837.115L197.929 807.492C192.449 804.26 183.24 799.969 178.882 795.466C175.098 791.556 175.381 785.128 175.383 780.071C197.446 790.84 218.424 803.486 239.686 815.75L329.472 867.723L361.495 886.411C367.986 890.248 374.683 895.234 381.841 897.703C387.987 899.824 394.519 898.991 400.538 896.874C407.004 894.599 413.253 890.191 419.127 886.663Q430.857 879.61 442.665 872.688L489.939 844.912C497.958 840.21 506.221 835.803 514.031 830.767C517.732 828.38 521.206 826.019 524.031 822.589Z"/>
	<path fill="#070718" transform="scale(0.401367 0.401367)" d="M171.822 327.659Q173.017 327.557 174.215 327.508Q175.413 327.46 176.612 327.466Q177.812 327.471 179.009 327.531Q180.207 327.591 181.401 327.704Q182.595 327.817 183.782 327.984Q184.97 328.151 186.148 328.372Q187.327 328.592 188.495 328.865Q189.663 329.138 190.817 329.463Q191.971 329.789 193.109 330.166Q194.248 330.542 195.368 330.97Q196.488 331.398 197.588 331.876Q198.688 332.353 199.766 332.88Q200.843 333.407 201.895 333.982Q202.948 334.556 203.974 335.178Q204.999 335.799 205.996 336.466Q206.992 337.133 207.958 337.844C219.208 346.133 227.07 358.225 229.082 372.138C231.172 386.595 227.16 402.328 218.314 413.944C208.775 426.47 195.558 433.269 180.12 435.321C167.461 436.229 154.383 433.564 144.014 425.987Q142.951 425.207 141.929 424.376Q140.906 423.545 139.925 422.665Q138.944 421.784 138.008 420.856Q137.072 419.929 136.183 418.956Q135.294 417.983 134.454 416.968Q133.614 415.952 132.825 414.897Q132.036 413.841 131.3 412.748Q130.564 411.655 129.882 410.526Q129.201 409.398 128.576 408.238Q127.951 407.078 127.384 405.888Q126.817 404.698 126.31 403.482Q125.802 402.266 125.355 401.026Q124.908 399.786 124.523 398.526Q124.138 397.265 123.815 395.987Q123.492 394.71 123.233 393.418Q122.973 392.125 122.778 390.822C120.474 375.611 124.109 360.915 133.256 348.538C142.865 335.537 156.235 329.93 171.822 327.659Z"/>
	<path fill="#FEFEFE" transform="scale(0.401367 0.401367)" d="M203.765 355.428C205.976 355.407 207.554 356.003 209.248 357.408C210.517 358.461 211.428 359.932 211.509 361.607C211.592 363.31 210.855 364.556 209.938 365.916C205.871 371.945 199.846 377.156 194.725 382.294C189.199 387.836 183.868 393.46 178.524 399.17C175.762 402.12 171.377 407.507 166.964 407.386C162.235 407.257 154.143 396.613 150.941 393.204C147.594 390.411 143.81 387.345 143.14 382.755C142.886 381.017 143.306 379.083 144.568 377.8C145.552 376.798 146.954 376.359 148.331 376.379C155.193 376.48 162.474 386.431 167.019 390.934C172.986 385.855 178.399 380.464 183.746 374.739C189.9 368.149 196.196 360.392 203.765 355.428Z"/>
	<path fill="#6D757C" transform="scale(0.401367 0.401367)" d="M567.606 79.794C571.448 83.2148 568.535 95.173 574.993 95.6891C577.799 93.1046 581.027 90.8098 584.347 88.938C586.654 89.7579 588.901 90.8116 591.151 91.7768C594.427 93.6508 597.629 95.3824 600.341 98.0528C598.994 102.624 596.568 106.785 595.375 111.366C596.111 112.956 596.914 115.376 598.819 115.881C602.593 116.88 605.803 112.418 608.83 117.098C610.786 120.121 611.359 124.114 612.137 127.573C609.078 129.414 604.931 132.852 604.094 136.498C603.746 138.015 604.102 139.49 605 140.742C607.251 143.883 611.359 145.416 614.748 146.998C614.216 152.143 614.065 158.559 610.594 162.684C607.803 164.288 600.921 162.866 600.197 166.783C599.531 170.386 603.294 174.74 605.478 177.316Q606.096 178.041 606.746 178.736C602.858 184.067 599.07 188.881 593.75 192.855C589.726 192.488 585.92 190.48 582.284 188.852C580.828 190.135 580.591 191.491 580.458 193.39C580.221 196.767 580.527 200.289 580.689 203.669C577.255 205.494 573.744 206.838 570.096 208.172C568.718 208.772 567.521 209.322 565.972 208.955C561.409 207.873 558.898 202.21 556.725 198.557C553.624 202.148 550.858 208.045 545.612 208.497C543.397 208.689 540.91 208.26 538.736 207.853C522.109 201.357 535.197 197.799 529.913 187.339C526.36 189.37 521.585 191.449 518.538 194.119C517.011 190.165 514.838 186.401 512.885 182.641C515.189 179.722 517.455 176.931 520.155 174.366C519.098 171.537 518.167 168.648 517.184 165.792C515.165 165.959 513.274 165.893 511.257 165.722C508.862 165.092 505.501 165.417 502.984 165.382C501.891 159.518 501.973 153.757 501.984 147.821L505.797 145.091L513.793 145.002C514.354 141.766 514.761 138.528 515.143 135.266C512.431 134.053 509.504 133.279 506.67 132.394L504.24 131.779C506.462 125.205 508.805 119.175 512.55 113.303C513.209 113.579 514.378 114.265 515.06 114.232C517.664 111.72 519.936 109.233 521.771 106.095L518.044 93.703C521.577 91.6073 525.571 88.8398 529.525 87.7276C532.596 86.8637 534.308 86.9704 537.08 88.5277C539.938 91.175 543.085 94.4192 546.754 95.9203L547.209 96.6395C550.198 97.7132 553.805 96.2806 556.742 95.4782C557.383 91.4446 557.675 87.3538 558.041 83.2873C561.159 82.6166 565.355 82.2106 567.606 79.794Z"/>
	<path fill="#070718" transform="scale(0.401367 0.401367)" d="M588.809 183.539C590.462 186.107 592.18 188.588 593.247 191.467C593.354 191.756 593.468 192.041 593.572 192.33C593.635 192.504 593.691 192.68 593.75 192.855C589.726 192.488 585.92 190.48 582.284 188.852L588.809 183.539Z"/>
	<path fill="#070718" transform="scale(0.401367 0.401367)" d="M574.993 95.6891C577.799 93.1046 581.027 90.8098 584.347 88.938C586.654 89.7579 588.901 90.8116 591.151 91.7768L583.412 101.14C580.765 99.0366 577.827 97.504 574.993 95.6891Z"/>
	<path fill="#070718" transform="scale(0.401367 0.401367)" d="M556.725 198.557C559.687 196.778 562.485 195.785 565.839 194.971C567.727 199.407 569.292 203.386 570.096 208.172C568.718 208.772 567.521 209.322 565.972 208.955C561.409 207.873 558.898 202.21 556.725 198.557Z"/>
	<path fill="#070718" transform="scale(0.401367 0.401367)" d="M529.913 187.339C534.288 187.916 537.26 189.797 540.928 192.05C540.39 197.359 539.889 202.633 538.736 207.853C522.109 201.357 535.197 197.799 529.913 187.339Z"/>
	<path fill="#070718" transform="scale(0.401367 0.401367)" d="M518.044 93.703C521.577 91.6073 525.571 88.8398 529.525 87.7276C532.596 86.8637 534.308 86.9704 537.08 88.5277C534.053 90.9169 530.906 93.2399 528.056 95.836C529.485 99.8175 531.005 103.79 532.24 107.836C529.177 110.847 526.081 113.829 523.164 116.982C520.717 116.245 517.16 115.599 515.06 114.232C517.664 111.72 519.936 109.233 521.771 106.095L518.044 93.703Z"/>
	<path fill="#070718" transform="scale(0.401367 0.401367)" d="M558.579 117.086C563.514 116.821 568.326 117.581 572.637 120.127C578.774 123.751 582.789 129.983 584.441 136.818Q584.623 137.577 584.767 138.344Q584.911 139.111 585.017 139.885Q585.122 140.658 585.188 141.436Q585.254 142.214 585.281 142.994Q585.309 143.774 585.297 144.555Q585.284 145.335 585.233 146.114Q585.182 146.893 585.091 147.668Q585.001 148.444 584.872 149.214Q584.743 149.984 584.575 150.746Q584.407 151.508 584.202 152.261Q583.996 153.014 583.753 153.756Q583.509 154.498 583.229 155.226Q582.949 155.955 582.632 156.668Q582.316 157.382 581.964 158.079Q581.612 158.776 581.226 159.454Q580.839 160.132 580.419 160.79C575.666 168.301 568.965 172.438 560.392 174.403C555.496 174.706 550.752 174.187 546.359 171.845C540.356 168.646 536.424 162.726 534.642 156.281Q534.439 155.519 534.274 154.747Q534.108 153.976 533.981 153.197Q533.853 152.419 533.764 151.635Q533.674 150.851 533.623 150.064Q533.572 149.277 533.559 148.488Q533.546 147.699 533.572 146.91Q533.598 146.122 533.662 145.336Q533.726 144.549 533.828 143.767Q533.931 142.985 534.071 142.209Q534.212 141.432 534.39 140.664Q534.568 139.895 534.783 139.136Q534.998 138.377 535.25 137.63Q535.503 136.882 535.791 136.148Q536.079 135.413 536.403 134.694Q536.726 133.974 537.084 133.271Q537.443 132.569 537.835 131.884C542.629 123.434 549.421 119.579 558.579 117.086Z"/>
	<path fill="#6D757C" transform="scale(0.401367 0.401367)" d="M556.31 129.023C558.598 128.921 560.781 129.13 562.912 130.039C566.591 131.607 569.239 134.589 570.583 138.333Q570.744 138.789 570.883 139.253Q571.021 139.717 571.136 140.188Q571.251 140.658 571.343 141.134Q571.434 141.609 571.502 142.089Q571.569 142.568 571.613 143.05Q571.656 143.532 571.676 144.016Q571.695 144.5 571.69 144.984Q571.685 145.468 571.656 145.952Q571.627 146.435 571.574 146.916Q571.521 147.398 571.444 147.876Q571.366 148.354 571.265 148.827Q571.165 149.301 571.04 149.769Q570.916 150.236 570.768 150.698Q570.62 151.159 570.45 151.612Q570.279 152.065 570.086 152.509Q569.893 152.953 569.678 153.387C567.374 157.929 563.79 160.68 559.02 162.234C557.24 162.272 555.644 162.276 553.908 161.79C550.302 160.78 547.235 158.879 545.404 155.53C543.181 151.465 543.122 146.078 544.49 141.732C546.452 135.499 550.775 131.943 556.31 129.023Z"/>
	<path fill="#007BFF" transform="scale(0.401367 0.401367)" d="M768.312 493.413C794.028 484.663 820.055 476.87 845.82 468.272C870.685 459.975 895.255 450.891 920.264 443.019L920.333 469.557C920.492 484.559 922.638 501.336 911.05 512.965C908.48 515.544 905.355 518.037 902.002 519.484C885.458 526.624 867.437 530.894 850.336 536.55Q830.123 543.347 809.983 550.361C803.457 552.65 796.975 555.294 790.369 557.322C787.353 558.247 783.467 559.577 780.301 559.481C777.596 559.4 773.889 558.292 772.019 556.236C769.809 553.805 768.841 550.04 768.375 546.875C767.464 540.678 767.933 534.24 767.998 527.991Q768.291 510.703 768.312 493.413Z"/>
	<path fill="#FEFEFE" transform="scale(0.401367 0.401367)" d="M904.409 497.094C904.539 497.238 904.702 497.359 904.799 497.527C905.466 498.681 905.289 499.319 905.066 500.544C904.098 501.878 903.116 502.579 901.618 503.226C888.574 508.853 874.148 512.464 860.646 517.012C837.496 524.81 814.496 533.444 790.902 539.814L790.08 538.787C789.954 538.021 789.648 537.317 790.005 536.585C790.859 534.832 793.338 533.897 795.054 533.207C801.662 530.553 808.641 528.743 815.437 526.636C822.784 524.358 830.071 521.834 837.372 519.415C859.691 512.02 881.902 503.849 904.409 497.094Z"/>
	<path fill="#FEFEFE" transform="scale(0.401367 0.401367)" d="M902.721 467.458C903.382 467.392 903.796 467.487 904.438 467.625C905.107 468.701 905.169 469.276 905.164 470.536C904.962 470.908 904.869 471.365 904.557 471.653C900.724 475.191 805.923 505.257 792.154 509.811C791.051 509.967 791.21 510.113 790.158 509.5C789.75 508.018 790.042 507.198 790.504 505.803C791.707 504.737 792.984 504.168 794.475 503.597C801.381 500.952 808.685 499.235 815.668 496.783C844.547 486.641 873.771 477.419 902.721 467.458Z"/>
	<path fill="#FEFEFE" transform="scale(0.401367 0.401367)" d="M904.941 481.543C905.493 483.218 905.296 485.237 905.291 486.999C867.297 500.086 829.227 513.678 790.681 525.056C790.495 524.772 790.274 524.509 790.124 524.206C789.713 523.377 789.908 521.869 790.246 521.079C790.718 519.976 792.215 519.464 793.269 519.031C807.346 513.252 822.442 509.203 836.897 504.459L904.941 481.543Z"/>
	<path fill="#070718" transform="scale(0.401367 0.401367)" d="M911.598 361.71C915.224 363.686 918.062 365.147 919.199 369.435C921.583 378.427 920.253 396.562 920.119 406.292C919.95 418.487 919.832 430.833 920.264 443.019C895.255 450.891 870.685 459.975 845.82 468.272C820.055 476.87 794.028 484.663 768.312 493.413L768.479 487.231Q768.766 470.193 768.27 453.159C768.09 445.429 767.434 437.37 768.416 429.694C768.911 425.827 769.96 421.703 772.156 418.449C774.322 415.239 777.149 412.903 780.594 411.214C791.463 405.888 803.168 402.255 814.515 398.109L862.652 380.097Q875.258 375.418 887.764 370.478C895.583 367.322 903.299 363.426 911.598 361.71Z"/>
	<path fill="#6D757C" transform="scale(0.401367 0.401367)" d="M879.604 401.514L880.458 402.005C881.149 404.281 881.012 406.654 881.028 409.014C871.485 412.289 862.016 415.978 852.393 418.986C852.121 418.598 851.768 418.119 851.563 417.702C850.992 416.537 850.705 415.636 851.229 414.386C853.51 408.944 873.977 403.389 879.604 401.514Z"/>
	<path fill="#6D757C" transform="scale(0.401367 0.401367)" d="M903.441 424.02L904.271 424.349C905.105 426.502 905.008 428.77 905.084 431.05C888.01 437.901 870.434 443.877 853.111 450.114L852.161 449.174C851.32 446.918 851.455 444.71 851.455 442.339C869.003 436.872 886.193 430.352 903.441 424.02Z"/>
	<path fill="#6D757C" transform="scale(0.401367 0.401367)" d="M904.031 409.09C904.375 409.496 904.205 409.262 904.58 410.129C905.369 411.955 905.217 413.465 904.456 415.247C899.562 419.836 860.544 432.405 852.16 434.808C851.08 433.028 850.942 430.716 851 428.679C851.201 428.321 851.308 427.891 851.604 427.606C853.23 426.037 897.794 411.226 904.031 409.09Z"/>
	<path fill="#6D757C" transform="scale(0.401367 0.401367)" d="M822.293 406.59C826.792 406.165 830.935 406.45 834.953 408.804C839.314 411.358 841.792 415.721 842.902 420.543C845.206 430.545 842.101 441.574 836.772 450.103C830.051 460.859 820.368 467.329 808.113 470.093C804.277 470.544 799.85 469.351 796.506 467.429C791.824 464.737 789.019 460.154 787.792 454.976C785.487 445.255 788.957 434.269 794.278 426.108C801.109 415.629 810.106 409.149 822.293 406.59Z"/>
	<path fill="#FEFEFE" transform="scale(0.401367 0.401367)" d="M819.399 422.478C820.648 422.639 821.977 423.126 823.077 423.736C824.94 424.769 826.068 426.461 826.621 428.478C827.095 430.203 827.058 431.297 826.124 432.849C824.534 432.144 823.503 429.132 822.306 427.701C821.404 426.621 820.581 426.242 819.159 426.186C816.828 426.094 814.43 428.063 812.961 429.668C809.993 432.911 807.473 437.947 807.924 442.453C808.098 444.19 808.761 445.829 810.322 446.785C811.84 447.713 813.965 447.871 815.647 447.357C819.088 446.306 821.398 442.868 823.015 439.879C823.375 438.79 823.78 437.795 824.281 436.764L825.329 436.455C828.28 437.648 823.964 442.223 825.823 446.337L825.496 446.969C819.873 447.334 818.511 450.247 814.104 451.204C811.742 451.717 808.991 450.003 807.042 448.898C805.978 447.144 805.179 445.311 804.359 443.438C804.84 440.694 805.325 437.959 806.351 435.354C808.882 428.923 813.158 425.088 819.399 422.478Z"/>
	<path fill="#6D757C" transform="scale(0.401367 0.401367)" d="M831.235 608.028L831.857 608.62C830.807 613.074 829.789 617.509 828.281 621.837C831.468 622.229 834.636 622.637 837.797 623.203C835.828 626.818 834.027 630.261 832.723 634.179C835.71 631.035 838.104 627.379 840.345 623.677C851.69 626.581 864.215 632.144 870.345 642.744Q871.503 644.748 872.272 646.931Q873.041 649.113 873.395 651.4C874.403 657.9 873.907 664.924 873.909 671.492L873.9 705.032C873.898 711.133 873.623 717.429 874.017 723.506C873.168 727.985 873.767 732.884 874.115 737.397C873.476 740.715 872.774 744.073 871.269 747.121C866.409 756.968 856.089 762.954 846.017 766.297C827.812 772.34 805.959 770.872 788.823 762.212C776.951 756.213 770.404 749.116 766.224 736.54C766.807 731.613 766.285 726.139 766.099 721.161C766.105 710.319 766.285 699.422 766.015 688.584C765.727 677.012 764.132 662.559 766.156 651.345Q766.438 649.727 766.916 648.156Q767.393 646.584 768.06 645.083Q768.727 643.583 769.573 642.175Q770.418 640.767 771.43 639.473C781.694 626.248 799.946 623.571 815.467 621.741L816.797 621.714C820.006 621.23 823.59 621.589 826.845 621.649C827.798 616.642 828.85 612.549 831.235 608.028Z"/>
	<path fill="#6D757C" transform="scale(0.401367 0.401367)" d="M432.497 244.073C415.811 243.315 398.919 243.472 382.213 243.52C373.131 243.546 363.732 244.328 354.725 243.002C351.704 242.557 349.036 242.068 346.94 239.688C345.422 237.963 344.712 236.011 344.457 233.754C343.818 228.104 344.154 222.134 344.15 216.445L344.158 185.869L344.135 153.551C344.132 147.155 343.836 140.608 344.431 134.244C344.651 131.892 345.423 129.933 347.296 128.382C349.406 126.635 354.525 126.504 357.228 126.308C375.219 125.002 393.423 126.126 411.442 126.083C429.138 126.041 447.775 124.363 465.334 126.709C467.975 127.062 470.557 128.063 472.146 130.331C473.235 131.885 473.212 134.358 473.327 136.204C474.189 149.948 473.515 164.104 473.546 177.9C473.592 197.89 474.107 217.973 473.442 237.946C470.886 241.604 468.451 243.161 463.994 243.879C455.554 245.238 446.573 243.224 438.015 243.989C436.134 244.211 434.386 244.174 432.497 244.073Z"/>
	<path fill="#007BFF" transform="scale(0.401367 0.401367)" d="M367.09 157.988L443.827 157.997C443.46 160.745 443.559 163.589 443.519 166.36L367.141 166.552L367.09 157.988Z"/>
	<path fill="#007BFF" transform="scale(0.401367 0.401367)" d="M433.853 176.236C440.402 176.09 446.979 176.211 453.532 176.21L453.522 184.351Q420.137 184.635 386.75 184.523L366.954 184.537L366.984 176.48C389.188 176.45 411.693 177.311 433.853 176.236Z"/>
	<path fill="#007BFF" transform="scale(0.401367 0.401367)" d="M366.949 193.959C395.902 194.766 425.059 194.014 454.033 193.959L453.946 202.024L366.952 202.46L366.949 193.959Z"/>
	<path fill="#007BFF" transform="scale(0.401367 0.401367)" d="M366.989 211.63L454.089 211.508Q454.036 215.797 453.913 220.084C424.968 220.891 395.879 220.445 366.917 220.509L366.989 211.63Z"/>
	<path fill="#007BFF" transform="scale(0.401367 0.401367)" d="M735.423 149.75C737.231 135.173 746.685 120.991 758.122 112.14Q759.267 111.272 760.452 110.46Q761.638 109.649 762.861 108.896Q764.085 108.143 765.343 107.451Q766.602 106.759 767.893 106.128Q769.184 105.498 770.504 104.931Q771.824 104.365 773.17 103.863Q774.516 103.361 775.885 102.925Q777.254 102.49 778.643 102.121Q780.031 101.752 781.436 101.452Q782.841 101.151 784.259 100.919Q785.676 100.687 787.104 100.525Q788.531 100.362 789.965 100.269Q791.398 100.176 792.835 100.153Q794.271 100.13 795.707 100.177Q797.143 100.224 798.575 100.34Q800.006 100.457 801.431 100.643C817.924 102.813 833.649 112.202 843.627 125.47C852.357 137.079 855.682 149.706 855.76 164.02C865.414 163.517 874.571 164.45 881.995 171.386Q882.525 171.89 883.029 172.419Q883.533 172.948 884.01 173.501Q884.487 174.054 884.937 174.631Q885.386 175.207 885.806 175.805Q886.227 176.402 886.617 177.02Q887.008 177.638 887.367 178.274Q887.727 178.91 888.054 179.563Q888.382 180.217 888.677 180.885Q888.972 181.554 889.234 182.236Q889.495 182.918 889.723 183.613Q889.951 184.307 890.144 185.012Q890.337 185.717 890.495 186.43Q890.653 187.144 890.775 187.864Q890.898 188.584 890.985 189.31Q891.072 190.035 891.123 190.764Q891.174 191.493 891.189 192.224Q891.201 192.917 891.177 193.61Q891.154 194.303 891.095 194.993Q891.036 195.684 890.941 196.371Q890.846 197.057 890.717 197.738Q890.587 198.419 890.422 199.093Q890.258 199.766 890.059 200.43Q889.86 201.094 889.628 201.747Q889.395 202.4 889.129 203.04Q888.863 203.68 888.564 204.306Q888.266 204.932 887.936 205.541Q887.605 206.151 887.244 206.742Q886.883 207.334 886.492 207.906Q886.101 208.479 885.681 209.03Q885.261 209.582 884.814 210.111Q884.366 210.64 883.892 211.146Q883.418 211.651 882.918 212.132C873.866 220.78 861.613 220.811 849.877 220.408C829.927 221.118 809.724 220.585 789.754 220.475L749.228 220.483C738.69 220.485 726.833 221.677 716.553 219.115Q715.517 218.855 714.502 218.527Q713.486 218.198 712.494 217.801Q711.503 217.405 710.541 216.942Q709.578 216.48 708.65 215.953Q707.721 215.427 706.829 214.839Q705.938 214.252 705.088 213.605Q704.238 212.959 703.434 212.256Q702.63 211.554 701.875 210.799C694.727 203.714 691.29 193.95 691.381 183.968C691.468 174.491 694.846 165.867 701.699 159.253C708.89 152.312 718.649 148.944 728.572 149.158C730.863 149.207 733.149 149.485 735.423 149.75Z"/>
	<path fill="#6D757C" transform="scale(0.401367 0.401367)" d="M796.125 181.008C799.132 172.722 802.659 165.5 811.177 161.63C817.244 158.873 825.163 158.936 831.295 161.46Q831.881 161.7 832.453 161.97Q833.026 162.239 833.583 162.538Q834.141 162.836 834.683 163.163Q835.225 163.49 835.75 163.844Q836.274 164.198 836.78 164.578Q837.286 164.959 837.771 165.364Q838.257 165.77 838.721 166.2Q839.185 166.63 839.627 167.084Q840.069 167.537 840.486 168.012Q840.904 168.487 841.297 168.983Q841.69 169.479 842.057 169.995Q842.424 170.51 842.765 171.044Q843.105 171.577 843.418 172.128Q843.73 172.678 844.014 173.243Q844.298 173.809 844.553 174.388Q844.807 174.967 845.032 175.559C846.018 178.102 846.75 180.745 847.445 183.379C852.625 183.847 857.185 185.736 860.537 189.835Q861.091 190.513 861.576 191.242Q862.061 191.971 862.472 192.744Q862.883 193.518 863.216 194.328Q863.548 195.138 863.8 195.976Q864.051 196.815 864.219 197.675Q864.387 198.534 864.469 199.406Q864.551 200.278 864.548 201.153Q864.544 202.029 864.454 202.9C863.987 207.346 861.674 212.543 858.064 215.305C855.497 217.268 852.355 218.436 849.877 220.408C829.927 221.118 809.724 220.585 789.754 220.475C783.136 215.702 777.736 212.22 776.495 203.339Q776.423 202.841 776.377 202.341Q776.33 201.84 776.308 201.338Q776.287 200.836 776.291 200.333Q776.294 199.83 776.323 199.328Q776.352 198.826 776.406 198.327Q776.459 197.827 776.538 197.33Q776.617 196.834 776.721 196.342Q776.824 195.85 776.952 195.364Q777.081 194.877 777.233 194.398Q777.385 193.919 777.561 193.448Q777.737 192.977 777.937 192.516Q778.136 192.054 778.358 191.603Q778.58 191.152 778.825 190.713Q779.07 190.274 779.336 189.847Q779.602 189.421 779.889 189.008Q780.177 188.596 780.484 188.198C783.699 184.053 788.322 181.714 793.497 181.205Q794.809 181.082 796.125 181.008Z"/>
	<path fill="#007BFF" transform="scale(0.401367 0.401367)" d="M182.256 563.647C184.951 563.744 186.989 564.233 189.146 565.918C193.552 569.359 195.334 574.86 195.939 580.204Q202.763 576.525 209.768 573.205C218.381 569.119 231.376 561.73 240.909 565.377C246.353 567.46 250.941 571.787 253.164 577.191C254.088 579.438 254.282 581.47 254.381 583.866C255.014 599.123 253.873 614.772 253.651 630.065C253.495 640.84 254.356 651.767 253.549 662.503C253.248 666.518 252.636 670.258 251.062 673.988C249.412 677.897 246.88 681.474 243.45 684.005C235.651 689.76 223.842 693.542 214.855 697.308L164.335 718.09L137.702 729.162C130.491 732.215 123.239 735.662 115.681 737.761Q111.402 736.417 107.366 734.463C102.798 732.302 96.8404 728.81 95.2399 723.73C92.9116 716.341 93.0968 645.867 94.533 635.444C94.9383 632.503 96.143 629.666 97.6361 627.115C99.6793 623.624 102.588 621.06 105.924 618.853C115.489 612.528 149.514 598.201 160.076 595.375C160.439 588.575 161.058 582.049 164.61 576.043C168.638 569.232 174.721 565.436 182.256 563.647ZM181.42 571.531C176.524 573.195 172.899 575.703 170.578 580.5C168.743 584.292 168.368 588.076 168.048 592.2L173.157 589.851C178.289 587.278 183.224 584.638 188.799 583.129C188.437 579.853 188.406 575.398 185.742 573.052C184.529 571.985 182.971 571.732 181.42 571.531Z"/>
	<path fill="#FEFEFE" transform="scale(0.401367 0.401367)" d="M167.932 646.488L169.685 646.608C170.715 647.51 171.042 647.605 171.333 648.918C168.456 654.385 140.221 663.877 133.566 666.496C132.182 666.512 131.825 666.557 130.629 665.9C130.412 665.264 130.078 664.859 130.385 664.197C132.73 659.13 161.974 648.808 167.932 646.488Z"/>
	<path fill="#FEFEFE" transform="scale(0.401367 0.401367)" d="M236.098 618.056C236.169 618.098 236.252 618.126 236.313 618.182C237.249 619.046 237.379 619.836 237.567 621.042C236.875 622.482 236.157 622.874 234.784 623.721C230.01 626.67 224.209 628.561 219.05 630.77Q202.965 637.848 186.635 644.339C185.573 643.388 185.298 642.064 185.09 640.721C187.876 636.344 227.886 621.267 236.098 618.056Z"/>
	<path fill="#FEFEFE" transform="scale(0.401367 0.401367)" d="M236.398 657.503C236.918 657.516 237.376 657.696 237.872 657.842C238.324 658.915 238.491 659.312 238.023 660.486C237.21 662.53 234.465 663.757 232.609 664.683C225.002 668.479 216.485 671.28 208.61 674.57L163.411 693.711C152.982 698.063 142.296 702.046 132.107 706.92C131.764 706.589 131.26 706.132 130.997 705.749C130.164 704.535 130.234 704.142 130.517 702.811C135.228 697.667 223.306 662.578 236.398 657.503Z"/>
	<path fill="#FEFEFE" transform="scale(0.401367 0.401367)" d="M235.638 637.344L236.667 637.668C237.574 638.872 237.653 638.996 237.74 640.494C236.965 642.287 236.06 642.862 234.422 643.769C226.132 648.364 216.448 651.046 207.723 654.791L132.239 686.59C131.126 686.251 130.596 685.919 129.75 685.121L129.925 684.085C131.864 681.823 134.155 680.424 136.793 679.085C146.879 673.962 157.748 670.218 168.17 665.83L235.638 637.344Z"/>
	<path fill="#6D757C" transform="scale(0.401367 0.401367)" d="M291.937 273.655Q289.564 276.206 286.993 278.559Q284.423 280.911 281.672 283.05Q278.921 285.189 276.008 287.099Q273.094 289.01 270.036 290.681Q269.202 291.147 268.356 291.592Q267.511 292.037 266.654 292.461Q265.798 292.885 264.931 293.287Q264.064 293.69 263.188 294.07Q262.312 294.451 261.426 294.81Q260.54 295.169 259.646 295.505Q258.752 295.842 257.849 296.156Q256.947 296.47 256.037 296.762Q255.127 297.054 254.21 297.323Q253.293 297.591 252.37 297.837Q251.446 298.083 250.517 298.306Q249.588 298.529 248.653 298.729Q247.719 298.929 246.78 299.105Q245.841 299.281 244.898 299.434Q243.954 299.587 243.008 299.717Q242.061 299.846 241.111 299.952Q240.161 300.058 239.209 300.14Q238.257 300.222 237.304 300.28Q236.35 300.339 235.395 300.373Q234.44 300.408 233.484 300.419Q232.529 300.43 231.574 300.417Q230.618 300.404 229.663 300.367Q228.708 300.33 227.755 300.27Q226.801 300.209 225.849 300.125Q224.897 300.041 223.948 299.933Q222.999 299.825 222.052 299.693Q221.106 299.562 220.163 299.407Q219.22 299.252 218.281 299.073Q217.342 298.895 216.408 298.693Q215.474 298.491 214.546 298.266Q213.617 298.041 212.694 297.793Q211.771 297.545 210.855 297.274C190.392 291.242 172.148 275.937 161.995 257.231Q161.523 256.359 161.074 255.475Q160.624 254.591 160.197 253.696Q159.769 252.801 159.364 251.896Q158.959 250.991 158.576 250.076Q158.194 249.161 157.834 248.237Q157.474 247.313 157.138 246.38Q156.801 245.447 156.488 244.506Q156.175 243.565 155.885 242.617Q155.595 241.668 155.329 240.713Q155.063 239.758 154.82 238.796Q154.578 237.834 154.36 236.867Q154.141 235.9 153.947 234.927Q153.753 233.955 153.583 232.978Q153.413 232.001 153.268 231.02Q153.122 230.039 153.001 229.054Q152.88 228.07 152.783 227.083Q152.686 226.096 152.614 225.107Q152.542 224.118 152.494 223.128Q152.447 222.137 152.424 221.146Q152.401 220.154 152.403 219.162Q152.405 218.171 152.431 217.179Q152.458 216.188 152.509 215.198Q152.56 214.207 152.636 213.219Q152.711 212.23 152.812 211.243Q152.912 210.256 153.037 209.273Q153.161 208.289 153.311 207.308Q153.46 206.328 153.633 205.352Q153.807 204.375 154.005 203.403Q154.202 202.432 154.424 201.465Q154.646 200.499 154.892 199.538Q155.138 198.577 155.407 197.623Q155.677 196.668 155.97 195.721Q156.544 193.859 157.208 192.027Q157.873 190.195 158.626 188.398Q159.38 186.601 160.221 184.843Q161.062 183.085 161.988 181.37Q162.915 179.656 163.924 177.989Q164.933 176.322 166.023 174.706Q167.113 173.091 168.281 171.531Q169.449 169.971 170.692 168.47Q171.935 166.97 173.251 165.532Q174.566 164.094 175.95 162.722Q177.335 161.351 178.785 160.049Q180.235 158.747 181.747 157.518Q183.259 156.289 184.83 155.135Q186.401 153.982 188.026 152.907Q189.651 151.832 191.328 150.838Q193.004 149.844 194.727 148.934Q196.446 148.05 198.205 147.25Q199.965 146.451 201.761 145.738Q203.557 145.025 205.386 144.401Q207.215 143.776 209.073 143.241Q210.93 142.707 212.811 142.263Q214.692 141.819 216.592 141.468Q218.493 141.116 220.408 140.857Q222.323 140.598 224.249 140.433Q226.174 140.268 228.106 140.197Q230.037 140.126 231.97 140.148Q233.902 140.171 235.831 140.288Q237.76 140.405 239.681 140.616Q241.603 140.826 243.511 141.13Q245.42 141.434 247.311 141.831Q249.203 142.227 251.073 142.715Q252.943 143.203 254.787 143.782Q255.733 144.078 256.671 144.398Q257.609 144.718 258.539 145.062Q259.469 145.405 260.39 145.772Q261.311 146.138 262.223 146.527Q263.135 146.917 264.036 147.329Q264.938 147.741 265.829 148.175Q266.72 148.61 267.6 149.066Q268.479 149.523 269.348 150.001Q270.216 150.48 271.072 150.98Q271.928 151.48 272.771 152.001Q273.614 152.522 274.444 153.064Q275.274 153.606 276.09 154.169Q276.906 154.732 277.708 155.315Q278.51 155.898 279.297 156.5Q280.084 157.103 280.855 157.725Q281.627 158.348 282.383 158.989Q283.139 159.63 283.878 160.29Q284.618 160.95 285.341 161.629Q286.063 162.307 286.769 163.003Q287.475 163.699 288.163 164.413Q288.851 165.127 289.521 165.857Q290.191 166.588 290.842 167.335Q291.494 168.082 292.126 168.845Q292.759 169.608 293.372 170.387Q293.986 171.166 294.58 171.96Q295.173 172.753 295.747 173.562Q296.321 174.37 296.874 175.193Q297.427 176.015 297.96 176.851Q298.492 177.687 299.004 178.536Q299.515 179.385 300.006 180.247Q300.496 181.109 300.964 181.982Q301.433 182.856 301.879 183.741C314.416 208.439 310.601 230.083 302.524 255.229C306.833 259.537 311.234 263.78 315.253 268.364L300.642 282.859L291.937 273.655Z"/>
	<path fill="#FEFEFE" transform="scale(0.401367 0.401367)" d="M230.346 155.732C230.615 155.719 230.885 155.703 231.154 155.693C246.97 155.1 263.194 162.174 274.627 172.837Q275.8 173.941 276.917 175.101Q278.034 176.261 279.094 177.474Q280.153 178.687 281.151 179.951Q282.15 181.215 283.085 182.526Q284.021 183.837 284.891 185.192Q285.761 186.547 286.564 187.943Q287.367 189.34 288.1 190.773Q288.834 192.207 289.496 193.675Q290.159 195.143 290.749 196.642Q291.339 198.141 291.854 199.666Q292.37 201.192 292.81 202.741Q293.251 204.29 293.615 205.859Q293.979 207.428 294.266 209.013Q294.553 210.598 294.762 212.195Q294.971 213.792 295.102 215.397Q295.232 217.002 295.284 218.612Q295.34 220.227 295.316 221.843Q295.291 223.459 295.186 225.072Q295.082 226.685 294.897 228.29Q294.712 229.896 294.447 231.49Q294.182 233.085 293.839 234.664Q293.495 236.243 293.073 237.803Q292.651 239.363 292.152 240.9Q291.653 242.438 291.078 243.948Q290.503 245.459 289.854 246.939Q289.204 248.418 288.482 249.864Q287.76 251.31 286.966 252.718Q286.173 254.126 285.31 255.493Q284.448 256.86 283.518 258.182Q282.589 259.504 281.595 260.778Q280.601 262.053 279.544 263.276Q278.488 264.499 277.372 265.668C265.843 277.733 249.94 284.3 233.375 284.636Q231.99 284.65 230.605 284.604Q229.221 284.557 227.84 284.451Q226.459 284.345 225.084 284.18Q223.708 284.014 222.341 283.789Q220.975 283.564 219.619 283.281Q218.263 282.997 216.921 282.655Q215.578 282.312 214.252 281.913Q212.926 281.513 211.618 281.056Q210.311 280.599 209.024 280.086Q207.737 279.573 206.474 279.005Q205.211 278.437 203.973 277.815Q202.735 277.193 201.526 276.518Q200.316 275.843 199.137 275.116Q197.958 274.389 196.811 273.612Q195.664 272.835 194.552 272.009Q193.44 271.183 192.365 270.31Q191.092 269.274 189.872 268.176Q188.652 267.078 187.488 265.921Q186.324 264.764 185.218 263.55Q184.113 262.337 183.07 261.07Q182.027 259.803 181.047 258.485Q180.068 257.168 179.156 255.804Q178.243 254.439 177.4 253.031Q176.556 251.623 175.784 250.175Q175.011 248.727 174.312 247.242Q173.612 245.757 172.987 244.239Q172.362 242.722 171.814 241.175Q171.265 239.628 170.794 238.055Q170.323 236.483 169.93 234.889Q169.538 233.296 169.225 231.684Q168.913 230.073 168.68 228.448Q168.448 226.823 168.297 225.189Q168.159 223.599 168.1 222.005Q168.041 220.41 168.06 218.815Q168.079 217.219 168.177 215.627Q168.274 214.034 168.45 212.448Q168.626 210.862 168.879 209.287Q169.132 207.712 169.463 206.151Q169.794 204.59 170.2 203.047Q170.607 201.504 171.089 199.983Q171.572 198.462 172.128 196.967Q172.684 195.471 173.313 194.005Q173.943 192.539 174.643 191.105Q175.344 189.671 176.114 188.274Q176.884 186.876 177.722 185.518Q178.559 184.16 179.463 182.845Q180.367 181.53 181.334 180.261Q182.301 178.992 183.329 177.772C195.235 163.797 212.349 157.078 230.346 155.732Z"/>
	<path fill="#6D757C" transform="scale(0.401367 0.401367)" d="M224.325 159.664C239.132 157.499 255.208 161.987 267.105 170.9Q268.345 171.824 269.537 172.809Q270.73 173.793 271.873 174.835Q273.016 175.877 274.106 176.974Q275.196 178.071 276.23 179.221Q277.265 180.37 278.241 181.569Q279.218 182.768 280.134 184.014Q281.051 185.26 281.904 186.549Q282.758 187.839 283.548 189.169Q284.337 190.499 285.059 191.866Q285.782 193.233 286.437 194.634Q287.091 196.035 287.676 197.467Q288.26 198.899 288.773 200.358Q289.287 201.817 289.727 203.299Q290.168 204.781 290.535 206.284Q290.902 207.786 291.195 209.304Q291.488 210.823 291.705 212.354Q291.913 213.844 292.048 215.342Q292.182 216.84 292.242 218.343Q292.302 219.846 292.287 221.35Q292.273 222.854 292.184 224.356Q292.095 225.857 291.932 227.353Q291.769 228.848 291.532 230.333Q291.295 231.819 290.985 233.291Q290.674 234.763 290.292 236.217Q289.909 237.672 289.455 239.106Q289.001 240.54 288.476 241.95Q287.952 243.359 287.358 244.741Q286.764 246.123 286.103 247.474Q285.441 248.825 284.714 250.142Q283.986 251.458 283.194 252.737Q282.403 254.016 281.548 255.254Q280.694 256.493 279.78 257.687C269.396 271.436 256.051 278.442 239.189 280.836C239.042 280.862 238.895 280.892 238.747 280.913C224.166 282.995 208.295 277.999 196.496 269.517Q195.266 268.633 194.082 267.69Q192.898 266.746 191.763 265.744Q190.628 264.742 189.544 263.685Q188.46 262.628 187.43 261.517Q186.4 260.407 185.427 259.247Q184.454 258.087 183.54 256.88Q182.626 255.673 181.773 254.421Q180.921 253.17 180.132 251.878Q179.343 250.585 178.619 249.255Q177.896 247.925 177.24 246.561Q176.583 245.196 175.996 243.8Q175.409 242.405 174.892 240.981Q174.375 239.558 173.93 238.111Q173.485 236.664 173.113 235.196Q172.74 233.728 172.442 232.244Q172.143 230.759 171.919 229.262Q171.679 227.742 171.516 226.212Q171.352 224.682 171.264 223.145Q171.176 221.609 171.165 220.07Q171.154 218.531 171.219 216.994Q171.284 215.456 171.426 213.924Q171.567 212.391 171.785 210.868Q172.002 209.344 172.295 207.834Q172.588 206.323 172.955 204.828Q173.323 203.334 173.764 201.86Q174.205 200.386 174.719 198.935Q175.233 197.484 175.818 196.061Q176.404 194.638 177.059 193.246Q177.714 191.853 178.438 190.495Q179.162 189.137 179.952 187.816Q180.742 186.496 181.597 185.216Q182.452 183.937 183.369 182.701C193.365 169.273 207.973 161.995 224.325 159.664Z"/>
	<path fill="#FEFEFE" transform="scale(0.401367 0.401367)" d="M255.145 202.845C258.078 204.637 277.146 225.771 277.723 228.189C277.899 228.928 277.743 228.815 277.287 229.554C272.462 228.934 258.877 211.702 255.43 207.504C244.155 218.891 233.719 231.198 222.515 242.695L216.255 236.042C210.858 230.662 205.699 225.012 200.451 219.485Q199.563 220.831 198.557 222.091C197.282 223.666 195.533 225.297 193.431 225.546L193.308 224.896C195.149 220.882 197.477 218.395 200.601 215.367Q211.918 226.6 222.498 238.531C225.794 233.751 230.458 229.483 234.45 225.246Q244.931 214.168 255.145 202.845Z"/>
	<path fill="#6D757C" transform="scale(0.401367 0.401367)" d="M557.638 833.101C563.593 827.669 576.357 821.235 583.579 816.68Q614.806 796.574 646.761 777.646C654.726 772.931 662.615 767.905 670.79 763.568C673.693 762.028 678.637 759.281 681.976 759.193C689.183 759.003 723.548 779.864 733.012 784.278C736.437 785.875 740.514 786.219 744.146 787.222C747.235 788.075 750.017 789.505 752.828 791.012C766.783 798.49 792.626 811.947 803.278 823.077C803.99 827.19 803.946 831.203 803.947 835.361C801.908 838.474 800.03 840.587 796.972 842.768C790.987 847.036 784.196 850.448 777.848 854.158C767.94 859.949 758.154 865.97 748.332 871.907C729.148 883.506 710.407 896.598 690.645 907.131C687.24 908.946 683.639 910.557 679.846 911.346C675.017 912.35 669.539 912.199 664.905 910.489C658.211 908.018 651.835 903.755 645.706 900.118L617.404 883.076L582.89 862.155C576.172 858.089 569.239 854.181 562.741 849.774C560.366 848.164 558.257 846.364 556.166 844.406C556.452 840.572 556.699 836.84 557.638 833.101Z"/>
	<path fill="#007BFF" transform="scale(0.401367 0.401367)" d="M684.288 783.615C690.792 783.18 697.524 783.685 703.217 787.215C706.496 789.249 709.223 792.368 710.062 796.212Q710.196 796.832 710.268 797.463Q710.341 798.093 710.35 798.728Q710.36 799.362 710.308 799.995Q710.255 800.627 710.14 801.251Q710.026 801.875 709.85 802.485Q709.675 803.095 709.44 803.685Q709.206 804.274 708.914 804.838Q708.623 805.402 708.277 805.934C705.097 810.891 699.429 813.289 693.905 814.526C688.955 815.357 683.547 815.061 678.773 813.465C673.095 811.567 668.934 808.097 666.339 802.693C666.484 798.689 666.505 795.058 668.758 791.556C672.098 786.361 678.609 784.734 684.288 783.615Z"/>
	<path fill="#007BFF" transform="scale(0.401367 0.401367)" d="M725.589 805.653C732.178 805.37 739.034 806.233 744.496 810.266C747.696 812.629 750.013 815.965 750.546 819.959Q750.642 820.659 750.666 821.365Q750.69 822.071 750.643 822.776Q750.595 823.481 750.476 824.177Q750.357 824.874 750.168 825.554Q749.979 826.235 749.722 826.893Q749.465 827.551 749.143 828.18Q748.82 828.808 748.435 829.401Q748.051 829.994 747.608 830.544C743.47 835.722 737.195 836.878 731.027 837.69C724.366 837.635 717.881 837.372 712.14 833.529C708.843 831.321 706.408 828.072 705.76 824.104Q705.654 823.464 705.614 822.817Q705.574 822.17 705.599 821.522Q705.625 820.874 705.716 820.232Q705.806 819.59 705.962 818.961Q706.117 818.331 706.335 817.721Q706.554 817.11 706.833 816.525Q707.111 815.939 707.448 815.385Q707.785 814.831 708.176 814.314C712.177 808.925 719.239 806.667 725.589 805.653Z"/>
	<path fill="#007BFF" transform="scale(0.401367 0.401367)" d="M432.497 244.073C434.386 244.174 436.134 244.211 438.015 243.989C437.883 263.693 438.057 283.426 437.713 303.124C457.739 296.46 477.826 289.755 498.158 284.078C498.104 285.995 497.957 287.957 498.156 289.867C498.838 303.548 498.211 317.484 498.178 331.193C498.15 342.862 499.321 355.665 497.315 367.17C490.533 369.022 483.718 370.713 477.045 372.937C460.606 378.068 443.817 382.364 427.23 387.002C420.137 388.985 412.335 390.489 405.544 393.265C389.656 398.241 368.387 400.17 359.824 416.477C352.419 430.578 356.211 449.012 355.375 464.397C355.62 481.359 354.805 498.358 355.381 515.295C340.536 520.547 325.058 524.537 310.437 530.27C298.185 534.465 285.801 538.354 273.638 542.795C275.013 552.991 274.151 564.007 274.339 574.306C274.818 600.618 274.509 627.028 274.385 653.344C274.327 665.728 273.81 678.151 274.486 690.527L268.524 693.948L268.551 617C268.719 592.801 269.414 568.673 268.392 544.472Q263.076 546.527 257.716 548.467C249.209 551.501 233.171 557.473 224.4 555.814C221.928 555.346 219.67 553.766 217.252 553.04C212.38 551.576 207.623 550.635 202.984 548.402C193.326 543.752 185.804 535.825 182.317 525.604C174.782 503.518 186.716 478.133 200.782 461.393C203.927 457.65 211.213 452.093 212.983 447.918C213.284 447.209 212.49 446.147 212.163 445.469C213.312 444.622 214.761 444.748 216.185 444.694C219.973 444.548 223.461 442.125 226.804 440.417C239.652 433.851 251.821 431.422 266.067 433.989C266.072 420.916 263.773 370.327 268.21 361.512C270.097 357.763 273.93 354.725 277.703 353.03C284.525 349.966 292.092 348.118 299.256 345.993Q313.739 341.687 328.177 337.232Q380.631 321.371 432.851 304.755C432.297 297.161 432.554 289.431 432.542 281.814L432.497 244.073ZM271.471 435.196C282.647 440.906 290.313 446.366 294.256 458.76Q294.695 460.122 295.047 461.509L300.758 460.217C300.678 460.029 300.587 459.846 300.518 459.653C294.871 443.957 299.793 418.753 306.341 403.95C315.819 382.525 331.268 367.735 353.048 359.288L353.058 335.099C339.141 338.568 325.445 343.755 311.743 348.037C301.704 351.174 290.717 353.474 281.08 357.629C278.398 358.786 275.101 360.352 273.593 362.968C272.084 365.587 271.454 368.838 271.154 371.828C270.42 379.167 270.869 386.761 270.989 394.134C271.211 407.786 271.674 421.556 271.471 435.196ZM437.545 308.718L437.567 327.564C448.922 327.054 459.235 328.067 468.003 336.054C474.93 342.364 477.688 352.641 478.059 361.745C478.212 365.501 477.664 369.24 477.045 372.937C483.718 370.713 490.533 369.022 497.315 367.17C499.321 355.665 498.15 342.862 498.178 331.193C498.211 317.484 498.838 303.548 498.156 289.867C477.683 294.972 457.754 302.607 437.545 308.718ZM358.455 333.558Q358.535 345.519 358.392 357.48C375.453 355.247 385.294 356.263 401.254 363.074C403.275 357.152 405.459 351.333 408.867 346.049C414.715 336.981 422.454 331.098 433.03 328.817L433.002 310.358C408.165 318.108 383.466 326.371 358.455 333.558Z"/>
	<path fill="#6D757C" transform="scale(0.401367 0.401367)" d="M358.392 357.48C375.453 355.247 385.294 356.263 401.254 363.074C399.453 373.795 398.095 382.754 404.862 392.326Q405.198 392.799 405.544 393.265C389.656 398.241 368.387 400.17 359.824 416.477C352.419 430.578 356.211 449.012 355.375 464.397C351.574 466.622 335.199 485.329 330.196 490.167C314.261 484.148 307.837 475.014 300.758 460.217C300.678 460.029 300.587 459.846 300.518 459.653C294.871 443.957 299.793 418.753 306.341 403.95C315.819 382.525 331.268 367.735 353.048 359.288L358.392 357.48Z"/>
	<path fill="#070718" transform="scale(0.401367 0.401367)" d="M498.158 284.078C498.565 282.485 498.154 280.091 498.109 278.384C497.884 269.922 496.733 258.525 502.376 251.496C505.089 248.117 508.793 245.83 512.78 244.253C520.874 241.053 529.636 239.061 538.015 236.718L582.016 224.41L625.03 212.033C635.338 208.993 646.88 204.33 657.569 203.528Q658.058 203.489 658.549 203.474Q659.04 203.46 659.531 203.47Q660.022 203.48 660.511 203.515Q661.001 203.549 661.489 203.609Q661.976 203.668 662.46 203.751Q662.943 203.835 663.422 203.943Q663.901 204.051 664.375 204.182Q664.847 204.314 665.313 204.469Q665.779 204.624 666.236 204.803Q666.694 204.981 667.142 205.182Q667.59 205.383 668.027 205.607Q668.464 205.83 668.89 206.075Q669.315 206.32 669.728 206.586Q670.14 206.852 670.539 207.139Q670.938 207.425 671.322 207.731Q671.706 208.037 672.074 208.362C678.356 213.971 679.255 222.411 679.606 230.286C679.631 232.709 679.756 235.187 679.672 237.606Q679.561 251.292 679.832 264.975C679.915 268.842 679.723 272.999 680.297 276.812C680.49 278.849 680.533 280.66 680.266 282.692C680.021 296.643 679.429 311.5 680.635 325.377C689.102 323.427 696.083 321.223 704.062 326.214C712.183 331.293 721.068 338.561 727.682 345.464C711.888 351.029 695.803 354.908 679.627 359.152L616.541 376.023L551.197 394.086C540.983 396.929 530.759 400.752 520.34 402.677C516.16 403.45 512.189 403.247 508.318 401.372C506.894 400.682 505.532 399.749 504.216 398.878C495.781 399.988 487.5 402.75 479.326 405.069L446.914 414.167L413.795 423.432C407.248 425.273 400.274 426.827 394.028 429.509C389.41 431.493 385.458 434.374 382.373 438.385C378.916 442.879 376.956 448.128 376.263 453.734C374.062 471.545 375.967 496.005 375.988 514.474L375.965 649.924L375.993 690.98C376 701.722 376.235 712.435 375.145 723.139C369.183 717.619 360.906 715.113 354.907 709.206C353.066 707.88 351.027 706.472 348.832 705.82C346.379 705.091 344.65 705.629 342.513 706.883C340.043 701.078 336.859 695.583 333.982 689.973C329.667 681.559 325.589 672.912 320.383 665.001C312.86 667.552 305.578 672.547 298.672 676.505C290.597 681.133 282.375 685.589 274.486 690.527C273.81 678.151 274.327 665.728 274.385 653.344C274.509 627.028 274.818 600.618 274.339 574.306C274.151 564.007 275.013 552.991 273.638 542.795C285.801 538.354 298.185 534.465 310.437 530.27C325.058 524.537 340.536 520.547 355.381 515.295C354.805 498.358 355.62 481.359 355.375 464.397C356.211 449.012 352.419 430.578 359.824 416.477C368.387 400.17 389.656 398.241 405.544 393.265C412.335 390.489 420.137 388.985 427.23 387.002C443.817 382.364 460.606 378.068 477.045 372.937C483.718 370.713 490.533 369.022 497.315 367.17C499.321 355.665 498.15 342.862 498.178 331.193C498.211 317.484 498.838 303.548 498.156 289.867C497.957 287.957 498.104 285.995 498.158 284.078ZM273.638 542.795C275.013 552.991 274.151 564.007 274.339 574.306C274.818 600.618 274.509 627.028 274.385 653.344C274.327 665.728 273.81 678.151 274.486 690.527C282.375 685.589 290.597 681.133 298.672 676.505C305.578 672.547 312.86 667.552 320.383 665.001C325.589 672.912 329.667 681.559 333.982 689.973C336.859 695.583 340.043 701.078 342.513 706.883C344.65 705.629 346.379 705.091 348.832 705.82C351.027 706.472 353.066 707.88 354.907 709.206C356.203 698.002 355.544 686.167 355.546 674.892L355.49 616.501C347.807 618.453 338.503 623.193 330.799 623.622C325.608 623.91 320.757 621.609 317.085 618.043C314.179 615.22 312.383 612.048 311.48 608.111C309.33 598.739 310.501 587.838 310.524 578.258Q310.642 554.264 310.437 530.27C298.185 534.465 285.801 538.354 273.638 542.795Z"/>
	<path fill="#007BFF" transform="scale(0.401367 0.401367)" d="M504.495 287.384C504.391 277.268 503.057 263.71 509.829 255.288C511.593 253.094 515.362 251.761 517.996 250.829C527.844 247.345 538.178 244.843 548.245 242.042L599.199 227.847C618.855 222.356 644.858 212.589 664.491 210.754C674.542 217.48 672.035 224.835 677.81 230.643L679.606 230.286C679.631 232.709 679.756 235.187 679.672 237.606C653.84 245.757 627.38 251.855 601.371 259.402L538.132 277.828C526.972 281.062 515.782 284.663 504.495 287.384Z"/>
	<path fill="#FEFEFE" transform="scale(0.401367 0.401367)" d="M618.371 229.492C620.364 229.433 622.039 229.405 623.647 230.817C624.779 231.811 625.3 233.197 625.2 234.692C624.961 238.246 623.101 240.266 620.591 242.549C620.365 242.554 620.14 242.565 619.915 242.564C617.82 242.549 615.729 242.187 614.317 240.48C613.293 239.242 613.072 237.654 613.368 236.122C613.962 233.041 615.902 231.205 618.371 229.492Z"/>
	<path fill="#FEFEFE" transform="scale(0.401367 0.401367)" d="M637.841 223.95C639.739 224.068 641.856 224.189 643.252 225.673C644.176 226.654 644.488 228.013 644.366 229.323C644.024 232.978 641.708 235.518 638.996 237.715C638.279 237.817 637.566 237.887 636.84 237.821C635.522 237.702 634.211 237.139 633.411 236.04C632.569 234.882 632.465 233.411 632.664 232.043C633.17 228.556 635.021 225.944 637.841 223.95Z"/>
	<path fill="#FEFEFE" transform="scale(0.401367 0.401367)" d="M657.431 217.486C658.408 217.45 659.464 217.372 660.43 217.568Q660.678 217.619 660.92 217.695Q661.162 217.771 661.396 217.871Q661.629 217.97 661.851 218.092Q662.073 218.215 662.282 218.358Q662.491 218.502 662.685 218.666Q662.879 218.829 663.055 219.012Q663.231 219.194 663.389 219.393Q663.546 219.592 663.683 219.805C664.624 221.293 664.629 222.928 664.222 224.585C663.417 227.866 661.533 229.629 658.744 231.326C656.954 231.249 654.954 231.148 653.566 229.838C652.632 228.957 652.217 227.626 652.248 226.369C652.349 222.336 654.602 219.986 657.431 217.486Z"/>
	<path fill="#070718" transform="scale(0.401367 0.401367)" d="M602.961 234.111L603.235 234.434C603.583 236.603 604.295 239.619 603.688 241.705C594.702 246.198 583.408 248.069 573.71 250.82L516.998 266.964C516.176 266.865 516.61 267.014 515.782 266.32C515.177 263.94 515.404 261.66 515.531 259.235C545.044 252.807 573.957 242.528 602.961 234.111Z"/>
	<path fill="#070718" transform="scale(0.401367 0.401367)" d="M607.202 245.089C607.919 245.158 607.499 245.038 608.316 245.776C608.325 246.262 608.36 247.167 608.282 247.624C606.561 257.618 528.561 273.128 516.702 279.166C515.161 277.141 515.154 273.747 514.853 271.256C529.585 266.209 544.883 262.215 559.858 257.903C575.449 253.414 591.32 248.415 607.202 245.089Z"/>
	<path fill="#6D757C" transform="scale(0.401367 0.401367)" d="M504.495 287.384C515.782 284.663 526.972 281.062 538.132 277.828L601.371 259.402C627.38 251.855 653.84 245.757 679.672 237.606Q679.561 251.292 679.832 264.975C679.915 268.842 679.723 272.999 680.297 276.812C680.49 278.849 680.533 280.66 680.266 282.692C680.021 296.643 679.429 311.5 680.635 325.377C681.109 332.694 680.853 339.35 675.716 345.18C672.602 348.715 668.834 349.987 664.51 351.524C652.13 355.927 639.183 358.9 626.527 362.403L570 378.387Q556.158 382.24 542.38 386.32C534.946 388.526 522.136 393.291 514.849 393.513C512.397 393.588 509.778 392.039 508.127 390.336C506.106 388.251 505.162 385.781 504.718 382.953C502.831 370.942 504.363 356.822 504.483 344.595C504.671 325.53 504.207 306.468 504.495 287.384Z"/>
	<path fill="#FEFEFE" transform="scale(0.401367 0.401367)" d="M570.115 294.51C570.772 294.49 571.596 294.411 572.255 294.547C573.48 294.799 573.997 295.38 574.652 296.365L574.424 297.437C573.005 299.364 571.059 300.42 568.888 301.357C563.56 303.659 557.374 304.959 551.791 306.568Q538.035 310.555 524.327 314.704C522.734 314.877 522.258 315.085 520.801 314.338C520.033 313.048 519.995 313.13 520.308 311.672C524.212 307.349 561.743 297.07 570.115 294.51Z"/>
	<path fill="#FEFEFE" transform="scale(0.401367 0.401367)" d="M575.842 282.542C576.031 282.497 576.217 282.431 576.41 282.406C577.709 282.241 579.422 282.228 580.505 283.01C580.797 284.155 580.788 284.411 580.064 285.479C579.104 286.895 576.847 288.356 575.312 289.045C570.556 291.183 564.781 292.366 559.765 293.839Q542.543 299.05 525.113 303.515C524.676 303.648 523.931 303.894 523.495 303.937C522.09 304.077 521.581 303.505 520.508 302.732C520.278 302.028 519.972 301.725 520.338 301.008C522.971 295.856 568.806 284.5 575.842 282.542Z"/>
	<path fill="#FEFEFE" transform="scale(0.401367 0.401367)" d="M660.766 305.086C661.785 305.064 662.493 305.111 663.398 305.656C664.65 306.41 665.355 308.002 665.761 309.347C667.237 314.242 667.577 325.358 664.963 329.742C662.377 334.079 652.004 336.176 647.304 337.608C646.3 337.509 645.418 337.323 644.433 337.109C642.947 335.927 642.398 334.877 641.866 333.054C640.327 327.783 640.056 317.111 643.058 312.311C645.833 307.875 655.991 306.212 660.766 305.086Z"/>
	<path fill="#FEFEFE" transform="scale(0.401367 0.401367)" d="M623.174 314.607L624.68 315.09C625.642 315.951 626.149 316.654 626.539 317.87C628.24 323.174 628.712 336.461 625.423 341.022C622.333 345.307 611.972 346.998 607.108 348.007L605.701 347.673C604.865 346.943 604.307 346.371 603.89 345.322C601.476 339.253 602.159 328.062 604.507 322.08C609.752 317.142 616.415 316.15 623.174 314.607Z"/>
	<path fill="#FEFEFE" transform="scale(0.401367 0.401367)" d="M583.349 325.081C584.372 325.086 585.28 325.03 586.206 325.557C587.34 326.202 587.86 327.255 588.259 328.431C590.197 334.144 590.291 345.85 587.263 351.197C584.82 355.512 574.689 357.183 570.036 358.402C569.184 358.498 568.41 358.38 567.561 358.294C566.655 357.745 566.105 357.401 565.495 356.499C561.988 351.319 563.961 338.442 565.104 332.61C569.947 327.533 576.804 326.606 583.349 325.081Z"/>
	<path fill="#FEFEFE" transform="scale(0.401367 0.401367)" d="M544.706 336.65L546.233 337.013C547.184 337.72 547.679 338.361 548.022 339.515C549.565 344.7 549.911 358.355 547.02 363.008C544.143 367.638 532.724 369.249 527.714 370.634C527.212 370.525 526.756 370.453 526.284 370.215C524.754 369.443 524.107 367.771 523.737 366.212C522.315 360.218 522.268 347.927 525.752 342.74C528.672 338.391 539.763 337.508 544.706 336.65Z"/>
	<path fill="#007BFF" transform="scale(0.401367 0.401367)" d="M504.216 398.878C505.532 399.749 506.894 400.682 508.318 401.372C512.189 403.247 516.16 403.45 520.34 402.677C530.759 400.752 540.983 396.929 551.197 394.086L616.541 376.023L679.627 359.152C695.803 354.908 711.888 351.029 727.682 345.464C729.316 347.659 730.303 349.132 730.45 351.918C731.696 375.596 730.603 399.776 730.568 423.496L730.526 557.468L730.486 636.195C730.486 647.454 731.653 662.468 730.084 673.255C728.81 682.02 723.711 688.832 716.738 693.987C716.446 694.203 716.145 694.407 715.841 694.606C716.353 700.894 716.474 708.296 712.037 713.329C709.729 715.948 706.101 717.457 702.827 718.504C689.927 722.63 675.875 724.568 662.701 727.917L545.641 757.927Q523.261 763.702 500.962 769.783C489.799 772.803 478.328 775.645 467.508 779.741C478.191 786.789 489.214 793.316 500.066 800.1C505.934 803.769 512.306 807.283 517.504 811.867C520.27 814.307 522.975 817.179 523.776 820.874C523.899 821.444 523.985 822.009 524.031 822.589C521.206 826.019 517.732 828.38 514.031 830.767C506.221 835.803 497.958 840.21 489.939 844.912L442.665 872.688Q430.857 879.61 419.127 886.663C413.253 890.191 407.004 894.599 400.538 896.874C394.519 898.991 387.987 899.824 381.841 897.703C374.683 895.234 367.986 890.248 361.495 886.411L329.472 867.723L239.686 815.75C218.424 803.486 197.446 790.84 175.383 780.071C179.354 776.819 184.094 774.227 188.438 771.485C187.579 764.96 179.081 756.079 181.584 747.025C182.399 744.076 186.192 741.372 188.658 739.68C194.265 735.835 200.699 733.019 206.598 729.628L242.803 708.586C251.359 703.715 260.218 699.235 268.524 693.948L274.486 690.527C282.375 685.589 290.597 681.133 298.672 676.505C305.578 672.547 312.86 667.552 320.383 665.001C325.589 672.912 329.667 681.559 333.982 689.973C336.859 695.583 340.043 701.078 342.513 706.883C344.65 705.629 346.379 705.091 348.832 705.82C351.027 706.472 353.066 707.88 354.907 709.206C360.906 715.113 369.183 717.619 375.145 723.139C376.235 712.435 376 701.722 375.993 690.98L375.965 649.924L375.988 514.474C375.967 496.005 374.062 471.545 376.263 453.734C376.956 448.128 378.916 442.879 382.373 438.385C385.458 434.374 389.41 431.493 394.028 429.509C400.274 426.827 407.248 425.273 413.795 423.432L446.914 414.167L479.326 405.069C487.5 402.75 495.781 399.988 504.216 398.878ZM350.286 787.63C341.003 792.934 331.743 798.564 321.969 802.914C331.251 808.629 340.738 815.408 350.671 819.844C359.38 814.222 368.821 809.572 377.971 804.704C372.492 801.566 367.063 798.399 361.763 794.966C358.137 792.617 354.172 789.413 350.286 787.63ZM318.013 805.548C309.091 810.828 299.959 816.437 290.751 821.164C297.603 825.335 311.225 834.802 317.931 837.618C326.93 832.047 336.305 827.067 345.581 821.977C336.853 816.291 327.599 809.633 318.013 805.548ZM318.753 768.927C309.888 774.167 300.862 779.147 292.021 784.417C296.825 787.479 314.76 800.159 319.278 800.554C328.327 795.534 337.47 790.681 346.401 785.454C341.119 782.023 323.677 769.409 318.753 768.927ZM349.521 824.491C341.222 828.876 329.558 836.335 321.31 839.641C329.732 845.06 338.581 851.803 347.82 855.642C356.133 851.351 367.688 846.042 375.257 841.1C370.934 837.688 354.048 825.371 349.521 824.491ZM381.522 807.079Q367.71 814.759 353.682 822.038C361.92 827.171 372.689 832.754 379.968 838.941C389.015 833.708 398.23 828.812 407.341 823.696C398.967 817.883 390.506 811.911 381.522 807.079ZM288.448 786.472C279.203 791.771 269.963 797.53 260.169 801.753C269.209 807.35 278.338 812.813 287.243 818.624C295.702 812.786 305.714 807.785 315.037 803.382C306.025 798.024 296.926 792.66 288.448 786.472ZM349.66 751.992Q336.71 759.416 323.566 766.49C328.166 769.312 347.363 782.816 351.218 782.902C359.862 778.092 368.418 773.057 377.163 768.439C372.9 765.494 353.613 752.217 349.66 751.992ZM380.02 771.426C371.553 776.099 362.93 781.665 354.134 785.603Q367.734 794.409 381.709 802.607Q394.323 795.005 407.382 788.194C403.013 785.123 384.26 771.455 380.02 771.426ZM259.857 768.938C250.574 774.063 241.469 779.428 232.272 784.7C237.997 788.608 250.027 797.647 256.213 799.414C265.878 794.942 274.991 789.37 284.155 783.97C280.276 781.21 263.469 768.884 259.857 768.938ZM320.473 733.454Q307.841 741.181 294.927 748.428C299.734 751.95 315.067 763.253 320.262 763.831C329.047 759.377 337.403 754.09 346.071 749.409C340.316 745.098 333.879 741.543 327.696 737.886C325.349 736.498 322.566 735.193 320.473 733.454ZM290.718 751.358Q277.519 759.124 264.028 766.371C267.926 768.356 286.269 781.791 288.688 781.356Q302.029 774.141 315.138 766.515C311.449 764.05 294.307 751.758 290.718 751.358ZM347.982 717.437C339.941 722.128 331.963 727.092 323.74 731.448C329.165 734.723 345.651 745.808 350.766 746.876C358.888 742.27 367.476 738.227 375.185 732.948C368.48 728.802 354.738 719.121 347.982 717.437ZM410.947 791.435Q398.528 798.095 386.199 804.922C391.526 808.399 397.034 811.643 402.27 815.25C405.391 817.401 408.33 820.055 411.496 822.075Q423.862 814.953 436.12 807.647C432.542 804.893 414.3 791.721 410.947 791.435ZM409.22 755.974C401.495 760.382 393.562 765.536 385.426 769.11C394.087 774.68 403.185 779.976 411.529 785.992C419.751 781.625 427.997 777.317 435.874 772.34C430.44 768.673 414.804 756.755 409.22 755.974ZM378.59 735.933C370.47 740.58 362.089 744.761 353.983 749.401C362.317 753.43 373.691 763.257 381.355 765.853C389.411 761.412 397.432 756.799 405.659 752.685C400.56 749.609 382.207 737.084 378.59 735.933ZM439.374 775.452C431.517 780.162 423.725 784.797 415.406 788.658C421.341 793.058 434.917 803.215 441.595 805.083C449.546 800.542 457.812 796.46 465.686 791.81C460.275 788.366 444.271 777.159 439.374 775.452Z"/>
	<path fill="#070718" transform="scale(0.401367 0.401367)" d="M479.077 810.579C485.911 813.686 492.282 817.409 498.155 822.088C480.186 834.003 461.111 844.612 442.53 855.558C428.973 863.544 415.565 872.26 401.626 879.519C398.83 880.975 396.18 882.387 393.016 882.844C385.962 879.761 379.869 875.746 373.475 871.511C389.089 861.84 405.213 853.005 421.134 843.847C440.432 832.746 459.623 821.399 479.077 810.579Z"/>
	<path fill="#070718" transform="scale(0.401367 0.401367)" d="M446.389 766.189C457.304 762.244 468.522 759.342 479.693 756.233Q499.111 750.689 518.622 745.482Q577.922 729.591 637.518 714.851C663.646 708.308 690.065 702.402 715.841 694.606C716.353 700.894 716.474 708.296 712.037 713.329C709.729 715.948 706.101 717.457 702.827 718.504C689.927 722.63 675.875 724.568 662.701 727.917L545.641 757.927Q523.261 763.702 500.962 769.783C489.799 772.803 478.328 775.645 467.508 779.741C462.704 778.649 451.274 769.511 446.389 766.189Z"/>
	<path fill="#FEFEFE" transform="scale(0.401367 0.401367)" d="M681.018 398.6C682.082 398.471 682.953 398.498 683.983 398.848C685.418 399.336 686.576 400.318 687.161 401.726C689.75 407.956 689.154 458.412 688.35 467.052C688.161 469.087 687.77 472.1 686.611 473.82C684.816 476.485 680.473 478.351 677.526 479.511C669.712 482.586 661.362 484.231 653.272 486.417C641.038 489.723 628.869 493.239 616.612 496.468C615.519 496.515 614.379 496.608 613.349 496.161C611.316 495.278 610.214 493.187 609.598 491.179C606.852 482.224 609.128 468.625 609.02 459.096C608.914 449.755 607.928 440.221 608.519 430.897C608.698 428.066 608.975 424.442 610.393 421.96C611.596 419.852 613.518 418.144 615.679 417.07C625.084 412.396 636.493 410.687 646.594 408.009C658.09 404.961 669.481 401.481 681.018 398.6Z"/>
	<path fill="#070718" transform="scale(0.401367 0.401367)" d="M666.706 420.284C670.102 421.584 673.31 423.442 676.52 425.142C672.911 429.547 669.693 434.461 666.375 439.098Q656.13 453.322 646.408 467.908C644.217 466.117 641.956 464.422 639.696 462.719C636.588 460.134 633.524 457.386 630.052 455.302C632.188 451.829 634.5 448.456 636.753 445.057C639.98 447.636 643.274 450.05 646.67 452.401C652.909 441.406 660.01 431.004 666.706 420.284Z"/>
	<path fill="#6D757C" transform="scale(0.401367 0.401367)" d="M586.526 424.133C587.925 423.957 589.964 423.887 591.265 424.488C592.506 425.061 593.638 426.589 593.997 427.875C595.842 434.475 595.366 482.771 594.581 491.832C594.363 494.347 593.87 498.427 592.513 500.547C591.028 502.864 587.017 504.473 584.464 505.414C576.889 508.205 568.604 509.465 560.791 511.514C548.432 514.754 536.167 518.598 523.692 521.346C522.172 521.36 519.789 520.98 518.493 520.125C516.916 519.085 516.444 517.587 516.04 515.827C513.94 506.675 515.112 492.344 515.083 482.707C515.055 473.369 514.405 463.589 515.329 454.292C515.603 451.531 516.11 447.572 517.783 445.347C519.645 442.871 524.655 441.107 527.566 440.074C536.281 436.983 545.642 435.059 554.577 432.615C565.091 429.739 575.836 426.169 586.526 424.133Z"/>
	<path fill="#6D757C" transform="scale(0.401367 0.401367)" d="M493.957 449.598C495.393 449.465 496.866 449.366 498.209 450.004C500.15 450.927 501.202 452.723 501.859 454.696C502.495 456.608 502.689 458.61 502.761 460.613C503.022 467.835 502.332 475.115 502.377 482.352C502.445 493.213 503.393 504.413 502.544 515.226C502.32 518.089 501.831 521.52 500.47 524.051C499.157 526.495 495.175 528.237 492.713 529.22C485.45 532.119 477.357 533.583 469.795 535.619L428.429 546.905C427.09 547.083 425.733 547.209 424.46 546.623C422.836 545.877 421.91 544.769 421.225 543.162C420.435 541.31 420.119 539.295 419.979 537.298C419.441 529.589 419.93 521.696 419.886 513.963C419.826 503.126 419.216 491.923 420.103 481.134C420.331 478.368 420.71 474.472 421.982 472.013C423.024 469.999 427.04 468.358 429.042 467.586C437.215 464.43 446.103 462.598 454.552 460.295Q474.218 454.81 493.957 449.598Z"/>
	<path fill="#FEFEFE" transform="scale(0.401367 0.401367)" d="M588.834 515.55C589.14 515.542 589.448 515.498 589.753 515.527C592.346 515.781 593.893 517.761 595.366 519.671C596.546 529.069 597.445 588.177 593.528 593.886C591.823 596.371 587.324 597.894 584.542 598.911C575.885 602.075 566.651 603.797 557.775 606.28C546.121 609.54 534.501 613.582 522.618 615.888C521.385 616.027 520.2 616.05 519.023 615.594C517.737 615.096 516.655 614.154 516.152 612.855C513.615 606.302 514.758 552.855 515.615 544.204C515.847 541.857 516.219 538.962 517.331 536.873C518.383 534.897 521.59 533.493 523.579 532.707C530.26 530.067 537.713 528.966 544.658 527.175C559.403 523.373 574.053 519.252 588.834 515.55Z"/>
	<path fill="#6D757C" transform="scale(0.401367 0.401367)" d="M683.962 489.651C684.875 489.849 685.802 490.167 686.555 490.741C688.448 492.186 688.741 494.34 688.974 496.552C689.979 506.081 690.827 564.787 686.339 569.616C684.661 571.42 681.782 572.541 679.499 573.337C669.667 576.764 659.184 578.906 649.129 581.651C640.272 584.069 621.085 590.369 613.198 590.839C610.947 589.221 609.253 587.817 608.534 585.036C606.167 575.872 608.049 564.567 608.008 555.104C607.956 543.083 606.786 530.803 608.096 518.832C608.361 516.41 609.018 513.921 610.393 511.879C611.651 510.011 613.255 509.176 615.286 508.32C623.347 504.926 632.314 503.295 640.734 500.926C655.122 496.88 669.164 492.081 683.962 489.651Z"/>
	<path fill="#6D757C" transform="scale(0.401367 0.401367)" d="M586.782 610.099C588.58 609.754 590.286 609.598 591.99 610.381C593.452 611.052 594.466 612.554 594.967 614.031C597.776 622.307 595.713 638.013 595.769 647.279C595.839 658.89 596.792 670.651 595.746 682.238C595.53 684.629 595.169 686.679 593.986 688.808C592.622 691.259 590.596 692.795 588.1 694.005C581.385 697.259 573.296 698.488 566.099 700.433L524.629 711.656C522.285 712.22 520.57 711.314 518.409 710.487C517.538 708.936 516.551 707.386 516.137 705.638C514.365 698.164 514.417 649.636 515.422 639.935C515.719 637.073 516.391 633.532 518.02 631.097C519.608 628.726 523.923 627.067 526.583 626.112C533.258 623.717 540.456 622.447 547.314 620.594C560.46 617.041 573.489 613.091 586.782 610.099Z"/>
	<path fill="#FEFEFE" transform="scale(0.401367 0.401367)" d="M680.561 584.65C681.999 584.445 683.811 584.133 685.231 584.575C686.721 585.04 687.683 586.001 688.264 587.419C689.276 589.893 689.489 593.124 689.632 595.786C690.072 603.966 689.493 612.341 689.5 620.551C689.508 631.83 690.096 643.455 689.179 654.696C688.882 658.341 688.418 661.59 687.12 665.023C685.075 666.992 683.314 668.111 680.684 669.163C670.443 673.257 659.04 675.204 648.353 677.887C637.573 680.594 627.021 683.875 616.114 686.088C615.55 686.265 615.107 686.325 614.518 686.219C612.632 685.882 610.698 684.832 609.609 683.22C608.068 680.94 607.859 676.494 607.678 673.778C607.133 665.565 607.962 657.022 607.978 648.765C608.003 635.595 606.649 621.845 608.685 608.813Q609.04 608.272 609.413 607.744C611.533 604.765 614.38 603.214 617.691 601.79C625.507 598.429 634.309 596.89 642.519 594.641C655.132 591.186 667.672 586.95 680.561 584.65Z"/>
	<path fill="#6D757C" transform="scale(0.401367 0.401367)" d="M494.819 540.102C496.25 539.957 498.138 540.003 499.417 540.754C500.621 541.461 501.271 542.751 501.687 544.028C503.224 548.749 503.103 603.277 502.611 610.428C502.473 612.449 501.997 616.697 500.799 618.399C498.875 621.131 495.214 622.936 492.166 624.162C483.83 627.516 474.551 629.174 465.857 631.462C453.319 634.763 440.882 638.508 428.286 641.571C426.709 641.506 425.324 641.416 423.918 640.626C422.396 639.771 421.457 638.401 421.02 636.728C418.988 628.947 419.374 579.899 420.338 569.95C420.578 567.467 420.981 563.257 422.494 561.285C424.159 559.117 427.951 557.743 430.5 556.874C437.838 554.373 445.751 553.03 453.265 551.04C467.089 547.38 480.877 543.271 494.819 540.102Z"/>
	<path fill="#FEFEFE" transform="scale(0.401367 0.401367)" d="M462.041 565.023C463.941 564.996 466.097 565.045 467.852 565.855C470.441 567.049 471.359 569.569 472.388 572.024C472.268 572.467 472.148 572.91 472.017 573.35C470.591 578.157 468.819 580.263 464.407 582.654C463.02 582.654 461.465 582.687 460.143 582.227C458.03 581.492 456.198 579.836 455.317 577.778C454.381 575.592 454.562 573.167 455.418 570.991C456.719 567.686 458.932 566.418 462.041 565.023Z"/>
	<path fill="#FEFEFE" transform="scale(0.401367 0.401367)" d="M473.362 581.025C475.997 580.944 478.665 581.049 481.106 582.166C484.234 583.599 486.52 586.405 487.634 589.618C489.312 594.455 490.201 605.367 487.645 609.89C485.98 612.835 481.631 613.374 478.623 614.184L465.877 617.168L465.885 585.469C468.229 583.687 470.761 582.385 473.362 581.025Z"/>
	<path fill="#FEFEFE" transform="scale(0.401367 0.401367)" d="M456.244 585.076C458.972 584.913 461.754 585.002 464.489 584.995C464.835 595.816 464.868 606.588 464.833 617.413C459.517 619.033 454.202 620.821 448.746 621.901C447 622.247 445.225 622.434 443.459 622.652C440.696 615.842 440.178 606.667 442.291 599.58C444.47 592.269 449.875 588.488 456.244 585.076Z"/>
	<path fill="#6D757C" transform="scale(0.401367 0.401367)" d="M495.238 634.555C495.45 634.534 495.661 634.499 495.873 634.491C497.876 634.418 500.011 635.514 501.352 636.979C502.275 637.987 502.729 639.16 502.908 640.502C503.902 647.954 503.222 656.309 503.221 663.859Q503.256 688.805 502.929 713.748C500.894 716.505 498.831 718.264 495.738 719.726C488.547 723.123 480.233 724.497 472.575 726.54Q450.369 732.691 427.925 737.907C426.878 737.908 425.828 737.647 424.857 737.249C423.176 736.56 421.715 735.306 421.066 733.584C418.824 727.637 419.846 672.774 420.568 663.647C420.736 661.521 420.914 659.024 421.943 657.131C423.186 654.844 426.315 653.319 428.603 652.382C434.125 650.12 440.621 649.159 446.404 647.554Q470.709 640.635 495.238 634.555Z"/>
	<path fill="#6D757C" transform="scale(0.401367 0.401367)" d="M274.486 690.527C282.375 685.589 290.597 681.133 298.672 676.505C305.578 672.547 312.86 667.552 320.383 665.001C325.589 672.912 329.667 681.559 333.982 689.973C336.859 695.583 340.043 701.078 342.513 706.883L341.154 707.788C314.135 722.782 287.678 738.579 261.024 754.204C243.588 764.426 225.378 774.131 208.767 785.643C206.032 786.265 204.995 785.666 202.623 784.341C197.703 781.591 190.08 777.215 188.438 771.485C187.579 764.96 179.081 756.079 181.584 747.025C182.399 744.076 186.192 741.372 188.658 739.68C194.265 735.835 200.699 733.019 206.598 729.628L242.803 708.586C251.359 703.715 260.218 699.235 268.524 693.948L274.486 690.527Z"/>
	<path fill="#070718" transform="scale(0.401367 0.401367)" d="M274.486 690.527C282.375 685.589 290.597 681.133 298.672 676.505C305.578 672.547 312.86 667.552 320.383 665.001C325.589 672.912 329.667 681.559 333.982 689.973C336.859 695.583 340.043 701.078 342.513 706.883L341.154 707.788C333.39 695.196 327.349 681.625 319.481 669.051L244.076 711.865C225.557 722.564 207.187 733.863 188.143 743.602C194.834 757.702 202.15 771.524 208.767 785.643C206.032 786.265 204.995 785.666 202.623 784.341C197.703 781.591 190.08 777.215 188.438 771.485C187.579 764.96 179.081 756.079 181.584 747.025C182.399 744.076 186.192 741.372 188.658 739.68C194.265 735.835 200.699 733.019 206.598 729.628L242.803 708.586C251.359 703.715 260.218 699.235 268.524 693.948L274.486 690.527Z"/>
</svg>
